<svg xmlns="http://www.w3.org/2000/svg" width="102" height="58" viewBox="0 0 102 58">
    <path fill="#FFF" fill-rule="nonzero" d="M95.444 1.442C91.72-.102 87.356.732 84.501 3.507a2.646 2.646 0 1 0 3.692 3.794c1.357-1.323 3.468-1.697 5.202-.98a4.8 4.8 0 0 1 2.926 4.421v36.505c0 1.932-1.023 3.787-2.915 4.42-1.892.634-3.447.113-5.213-.966-.103-.063-3.75-2.527-10.938-7.391L52.654 26.803 17.664 3.327C14.766.648 10.57-.09 6.887 1.457a10.088 10.088 0 0 0-6.148 9.296v36.501c0 4.057 2.414 7.705 6.17 9.302a10.17 10.17 0 0 0 3.922.787c2.64 0 5.134-1.013 7.022-2.85a2.651 2.651 0 0 0 .05-3.745 2.653 2.653 0 0 0-3.744-.05c-1.355 1.32-3.47 1.697-5.202.977a4.798 4.798 0 0 1-2.926-4.42V10.752a4.792 4.792 0 0 1 8.128-3.454c.115.112.238.212.37.3L49.7 31.197 74.264 47.68c6.498 4.4 9.778 6.602 9.84 6.606 3.278 2.04 5.748 3.06 7.41 3.06a10.088 10.088 0 0 0 10.098-10.096V10.746a10.086 10.086 0 0 0-6.168-9.304z"/>
</svg>
