<svg xmlns="http://www.w3.org/2000/svg" width="53" height="61" viewBox="0 0 53 61">
    <path fill="#FFF" fill-rule="nonzero" d="M26.374.877c-.652 1.354-1.1 1.673-1.1 2.824 0 .403.086.796.243 1.156-.452-.224-.845-.393-1.22-.408-.354-.015-.691.108-1.047.451-.964.964-.229 1.939.985 1.915-.432-.56-.065-.903.39-.874.447.03.84.99.913 1.8a.468.468 0 0 0-.365.457v.035c0 .234.17.426.395.461.068.147.365.859-.214 1.178-.485.268-.48-.209-.228-.583-.708-.015-1.136.635-.574 1.277.207.23.404.311.61.301.038 0 .075-.008.113-.015l-.094.282c-.052.157.128.298.294.305v9.415l-9.29.868v-5.939c.166-.008.345-.148.293-.306l-.093-.281a.827.827 0 0 0 .112.015c.206.01.403-.072.61-.301.563-.643.134-1.293-.574-1.277.252.374.258.85-.227.583-.58-.32-.282-1.031-.214-1.178a.467.467 0 0 0 .395-.462v-.035a.467.467 0 0 0-.366-.456c.073-.81.467-1.771.913-1.8.455-.03.822.313.39.874 1.214.023 1.95-.952.986-1.916-.731-.704-1.387-.478-2.268-.042.158-.36.243-.753.244-1.156 0-1.152-.449-1.47-1.1-2.825-.651 1.354-1.1 1.673-1.1 2.825 0 .403.086.795.244 1.155-.453-.224-.846-.393-1.22-.408-.354-.015-.692.108-1.048.451-.963.964-.228 1.94.986 1.916-.432-.561-.065-.904.39-.874.446.029.84.99.912 1.8a.468.468 0 0 0-.365.456v.035c0 .235.171.426.395.462.068.147.366.858-.214 1.178-.485.267-.48-.21-.227-.583-.708-.016-1.137.634-.575 1.277.208.229.405.31.611.3.037 0 .074-.007.112-.014l-.093.281c-.052.158.127.298.294.306v6.107l-9.291.867v-2.433c.167-.007.346-.148.294-.305l-.093-.282a.734.734 0 0 0 .111.015c.207.01.404-.072.612-.3.562-.643.133-1.293-.575-1.277.252.374.257.85-.228.582-.579-.32-.282-1.03-.213-1.177a.467.467 0 0 0 .395-.462v-.035a.467.467 0 0 0-.366-.456c.073-.81.466-1.772.912-1.8.456-.03.823.312.39.873 1.215.024 1.95-.951.986-1.915-.73-.705-1.387-.478-2.267-.043.158-.36.243-.752.244-1.156 0-1.151-.45-1.47-1.1-2.824-.651 1.354-1.1 1.673-1.1 2.824 0 .403.086.796.244 1.156-.453-.224-.846-.393-1.22-.408-.354-.015-.692.108-1.048.451-.964.964-.229 1.939.985 1.915-.431-.56-.065-.903.39-.874.447.03.84.99.913 1.8a.468.468 0 0 0-.365.457v.035c0 .234.17.426.395.462.068.146.365.858-.214 1.177-.485.268-.48-.209-.228-.582-.708-.016-1.136.634-.574 1.276.208.23.404.311.611.301.037 0 .074-.007.112-.015l-.094.282c-.052.157.128.298.294.305V22.925l-2.303.215v1.6l2.303-.215V36.29H.997v1.6H3.3v11.728H.997v1.6H3.3v9h1.797v-9h9.29v9h1.797v-9h9.29v9h1.798v-9h9.29v9h1.797v-9h9.291v9h1.797v-9h2.303v-1.6h-2.303V37.89h2.303v-1.6h-2.303V24.524l2.303.215v-1.6l-2.303-.215v-2.601c.166-.007.346-.148.294-.305l-.093-.282a.734.734 0 0 0 .111.015c.207.01.404-.072.611-.3.563-.643.134-1.293-.574-1.277.252.373.257.85-.228.582-.579-.32-.282-1.03-.214-1.177a.467.467 0 0 0 .396-.462v-.035a.467.467 0 0 0-.366-.456c.073-.81.466-1.772.912-1.8.456-.03.822.312.39.873 1.215.024 1.95-.951.986-1.915-.73-.705-1.387-.478-2.267-.043.157-.36.243-.752.243-1.156 0-1.151-.448-1.47-1.1-2.824-.65 1.354-1.1 1.673-1.1 2.824 0 .403.087.796.245 1.156-.453-.224-.846-.393-1.22-.408-.355-.015-.692.108-1.048.451-.964.964-.229 1.939.985 1.915-.431-.56-.065-.903.39-.874.447.03.84.99.913 1.8a.468.468 0 0 0-.365.457v.035c0 .234.17.426.395.462.068.146.365.858-.214 1.177-.485.268-.48-.209-.228-.583-.708-.015-1.136.635-.574 1.277.207.23.404.311.61.301.038 0 .075-.008.113-.015l-.094.282c-.052.157.128.298.294.305V22.757l-9.29-.868V15.782c.166-.007.345-.148.293-.305l-.093-.282a.827.827 0 0 0 .112.016c.207.01.403-.073.611-.301.562-.643.134-1.293-.575-1.277.252.374.258.85-.227.582-.58-.319-.282-1.03-.214-1.177a.467.467 0 0 0 .395-.462v-.035a.467.467 0 0 0-.366-.456c.073-.81.467-1.772.913-1.8.455-.03.822.313.39.873 1.214.024 1.95-.951.986-1.915-.731-.704-1.387-.478-2.268-.043.158-.36.243-.752.244-1.155 0-1.152-.449-1.47-1.1-2.825-.651 1.354-1.1 1.673-1.1 2.825 0 .403.086.795.244 1.155-.453-.224-.846-.393-1.22-.408-.354-.015-.692.108-1.048.451-.963.964-.228 1.939.986 1.915-.432-.56-.065-.903.39-.873.446.029.84.99.912 1.8a.468.468 0 0 0-.365.456v.035c0 .235.171.426.395.462.069.147.366.858-.213 1.177-.485.268-.48-.208-.228-.582-.708-.016-1.137.634-.575 1.277.208.228.405.31.611.3.037 0 .075-.007.112-.015l-.093.282c-.052.157.127.298.294.305v5.94l-9.291-.868V11.439c.166-.007.346-.148.294-.305l-.093-.282a.734.734 0 0 0 .111.015c.207.01.404-.072.611-.3.563-.643.134-1.293-.574-1.278.252.374.257.85-.228.583-.579-.32-.282-1.03-.214-1.178a.467.467 0 0 0 .395-.461v-.035a.467.467 0 0 0-.365-.457c.073-.81.466-1.771.912-1.8.456-.03.822.313.39.874 1.215.024 1.95-.951.986-1.915-.73-.705-1.387-.479-2.267-.043.157-.36.243-.753.243-1.156 0-1.151-.448-1.47-1.1-2.824zm-.9 21.577V36.29h-9.29V23.322l9.29-.868zm1.798 0l9.29.868V36.29h-9.29V22.454zM14.387 23.49v12.8h-9.29V24.358l9.29-.868zm23.972 0l9.291.868V36.29h-9.29v-12.8zM5.097 37.89h9.29v11.728h-9.29V37.89zm11.087 0h9.29v11.728h-9.29V37.89zm11.088 0h9.29v11.728h-9.29V37.89zm11.087 0h9.291v11.728h-9.29V37.89z"/>
</svg>
