<svg xmlns="http://www.w3.org/2000/svg" width="97" height="62" viewBox="0 0 97 62">
    <path fill="#FFF" fill-rule="nonzero" stroke="#FFF" d="M83.091 5.431c.364-1.324 1.342-2.666 2.565-3.329 3.681.018 7.714.048 10.124.096.74.018.96-.698-.107-.71-17.545-.155-91.442 0-91.442 0-1.17 0-2.201.883-2.518 2.004l-.256.997a7.752 7.752 0 0 0 .996 6.317 7.713 7.713 0 0 0 5.393 3.4l13.387 1.826-.084 19.257c-.023 6.956 2.661 13.5 7.565 18.434 4.904 4.928 11.436 7.654 18.392 7.66l21.602.036a.3.3 0 0 0 .298-.298.295.295 0 0 0-.298-.298l-21.602-.036c-6.795-.006-13.178-2.667-17.968-7.487-4.79-4.82-7.565-11.216-7.541-18.01l-.018-31.314v.3h.805c.042 0-.083-.195-.077-.201.012.041-.131-.075-.131.056v.238c0 6.497 3.824 13.53 12.23 13.62.142.006.297.101.297.274v13.912c0 8.406 7.141 15.65 15.547 15.65h18.458a.295.295 0 0 0 .298-.299.295.295 0 0 0-.298-.298H50.25c-8.078 0-14.95-6.975-14.95-15.053V18.263c0-.1.131-.121.101-.205l60.564 8.29H96c.149 0 .274-.182.298-.332.024-.16-.095-.344-.257-.368l-3.388-.51a14.479 14.479 0 0 1-8.209-5.996 14.475 14.475 0 0 1-1.873-11.825l.519-1.886zM35.336 2.485h.865c-.615.597-1.08 1.22-1.295 1.995l-.364 1.225a10.621 10.621 0 0 0 1.384 8.707c.675 1.026 1.516 1.878 2.476 2.6a9.85 9.85 0 0 1-3.722-3.336 9.81 9.81 0 0 1-1.271-8.017l.358-1.092c.227-.83.817-1.485 1.569-2.082zm-17.408 0h.644c-.483.597-.847 1-1.014 1.62l-.31 1.015a8.954 8.954 0 0 0 1.175 7.365c.483.74 1.08 1.347 1.748 1.896a8.139 8.139 0 0 1-2.726-2.572 8.224 8.224 0 0 1-1.062-6.718l.298-.888c.185-.662.65-1.121 1.247-1.718zM7.93 13.628a7.113 7.113 0 0 1-4.982-3.126 7.14 7.14 0 0 1-.918-5.81l.262-.838c.239-.865 1.038-1.369 1.939-1.369h3.168c-.388.597-.692.838-.836 1.363l-.268.872a7.832 7.832 0 0 0 1.026 6.453 11.195 11.195 0 0 0 2.565 2.749l-1.956-.294zm3.4.46c-1.414-.722-2.649-2.005-3.496-3.294a7.385 7.385 0 0 1-.96-6.013l.268-.772c.161-.579.555-.927 1.068-1.524h.53c-.41.597-.72.874-.876 1.417l-.274.908a8.075 8.075 0 0 0 1.055 6.643c.776 1.17 1.874 2.075 3.09 2.713l-.405-.078zm3.162.334a7.62 7.62 0 0 1-5.334-3.347 7.59 7.59 0 0 1-.99-6.21l.275-.802c.167-.603.584-.981 1.115-1.578h7.517c-.453.597-.8.957-.967 1.56l-.298.985a8.673 8.673 0 0 0 1.14 7.145 8.7 8.7 0 0 0 3.597 3.089l-6.055-.842zm16.238 2.326c-5.333-1.82-7.958-7.266-7.958-12.379v-.238c0-.275.298-.452-.388-.452h-.602c-.114 0-.275-.189-.394-.064-.125.138-.12.204-.113.336.006.035.006.027.006.069l-.042 10.427a8.368 8.368 0 0 1-2.32-2.328 8.491 8.491 0 0 1-1.098-6.932l.31-.918c.19-.698.68-1.186 1.3-1.783H34.43c-.59.597-1.032 1.178-1.24 1.923l-.353 1.183c-.8 2.9-.31 5.945 1.342 8.45 1.134 1.719 2.67 3.006 4.52 3.8l-7.968-1.094zm12.117 1.617a10.12 10.12 0 0 1-6.42-4.331 10.124 10.124 0 0 1-1.312-8.269l.37-1.124c.239-.865.853-1.559 1.635-2.156h18.243c-.746.597-1.313 1.41-1.563 2.33l-.418 1.409a12.073 12.073 0 0 0 1.575 9.9c1.181 1.79 2.798 3.411 4.671 4.533l-16.781-2.292zm18.618 2.511c-2.445-.972-4.57-2.947-6.007-5.13a11.555 11.555 0 0 1-1.497-9.462l.417-1.314c.28-1.02 1.014-1.888 1.945-2.485h1.128a4.656 4.656 0 0 0-1.63 2.413l-.429 1.463a12.408 12.408 0 0 0 1.623 10.199 12.49 12.49 0 0 0 5.184 4.443l-.734-.127zm4.415.567a11.958 11.958 0 0 1-8.37-5.262 11.964 11.964 0 0 1-1.545-9.765l.43-1.357c.292-1.062 1.062-1.977 2.034-2.574h18.94s1.986-.2 4.716-.194c-.931.782-1.69 1.848-2 2.978l-.502 1.77a14.563 14.563 0 0 0 1.885 11.912 14.585 14.585 0 0 0 6.956 5.571L65.88 21.443zM82 7.15a15.047 15.047 0 0 0 1.944 12.296 14.978 14.978 0 0 0 4.594 4.468 13.95 13.95 0 0 1-6.569-5.321 13.996 13.996 0 0 1-1.813-11.443l.501-1.625c.352-1.282 1.295-2.442 2.482-3.039h1.45c-.99.597-1.743 1.787-2.07 2.98l-.52 1.684z"/>
</svg>
