<svg xmlns="http://www.w3.org/2000/svg" width="84" height="60" viewBox="0 0 84 60">
    <path fill="#FFF" fill-rule="nonzero" d="M82.571 21.286l-.428-1-1.143.143c-4.571.857-9 1.142-11.286 1.285 0-7.143-1.857-12.714-5.428-16.571C59.714.286 53.57 0 51.857 0h-.571L16.429 11.714c-2.715 1.143-5 2.286-6.858 3.715C3 19.857 0 26.286 0 35.57 0 49.286 11.857 60 27 60c11.286 0 14.429-.571 18.286-1.286 1.143-.143 2.428-.428 4-.714h.285l34.143-22.714v-.715c.572-9.428-1-13.142-1.143-13.285zm-2.714 2.285L47.43 44.714c-2.858.715-9.143 1.429-14 2 1-.285 1.857-.714 2.428-.857 11.429-5.286 30.572-19.571 32.714-21.286 1 0 5.858-.142 11.286-1zM51.714 2.857c1 0 6.572.143 10.572 4.286 3.285 3.428 4.857 8.857 4.571 16v1c-4.286 3.286-21.286 15.571-31.571 20.428-.286.143-.857.286-1.429.572.286-.286.429-.429.572-.714C40 37.143 40 28.857 34.57 22c-3.428-4.429-9.285-7.714-15.428-8.143l32.571-11zm-6.857 53C41.286 56.571 38.143 57 27.143 57c-13.714.143-24.286-9.429-24.286-21.429 0-8.285 2.572-13.857 8.286-17.857 1.143-.714 2.428-1.428 3.714-2.143 7.286-1.428 14.572 2.143 18.572 7.286 5 6.286 4.857 14-.143 20.714-2.429 3.143-7.572 4.572-12.715 3.429-4.857-1-11.714-6.143-9.857-15.571.572-3 2.429-5.715 5-7.286 1.572-1 4.143-1.857 7.572-.714 4.857 1.571 7.143 5.714 6 10.857-.429 2.428-2 4-4.143 4.285-2 .286-4.286-.428-5.143-2-.857-1.428-.571-3.142 1-5 .286-.285.143-.714-.143-1-.286-.285-.714-.142-1 .143-2.428 3.143-1.714 5.572-1 6.715 1.143 2 4 3.142 6.572 2.714 2.714-.429 4.714-2.429 5.285-5.429 1.429-7-2.714-11.143-7-12.571-3-1-6-.714-8.714.857-2.857 1.714-5 4.714-5.714 8.286-2 10.428 5.714 16.143 11 17.285 1.143.286 2.428.429 3.571.429.714 0 1.429 0 2-.143.143.143.286.143.429.143.571 0 14.857-1.286 20.571-2.571l1.143 9c-1.143.142-2.143.285-3.143.428zm36-22.143L49.571 54.571l-1-8.857 32-20.857c.286 1.714.572 4.714.286 8.857z"/>
</svg>
