<svg xmlns="http://www.w3.org/2000/svg" width="30" height="40" viewBox="0 0 30 40">
    <g fill="#548ABA" fill-rule="nonzero">
        <path d="M29.09 3.864h-7.272v-.455A3.182 3.182 0 0 0 18.636.227h-7.272A3.182 3.182 0 0 0 8.182 3.41v.455H.909A.91.91 0 0 0 0 4.773v34.09c0 .503.407.91.91.91h28.18a.91.91 0 0 0 .91-.91V4.774a.91.91 0 0 0-.91-.91zM10 3.409c0-.753.61-1.364 1.364-1.364h7.272c.753 0 1.364.611 1.364 1.364v3.182H10V3.409zm18.182 34.546H1.818V5.682h6.364V7.5c0 .502.407.91.909.91h11.818a.91.91 0 0 0 .91-.91V5.682h6.363v32.273z"/>
        <path d="M5.736 12.5h18.523v1.818H5.736zM5.736 23.409h7.614v1.818H5.736zM5.736 17.955h18.523v1.818H5.736zM20.455 23.082a3.755 3.755 0 0 0-3.746 3.736v.132a3.755 3.755 0 0 0 2.491 3.527l-2.205 4.01 1.591.877 2.096-3.81 1.463 1.414 1.264-1.309-1.364-1.318a3.75 3.75 0 0 0 2.164-3.391v-.132a3.755 3.755 0 0 0-3.754-3.736zm1.931 3.877a1.932 1.932 0 1 1-3.863 0v-.14a1.932 1.932 0 1 1 3.863 0v.14z"/>
    </g>
</svg>
