<svg xmlns="http://www.w3.org/2000/svg" width="30" height="40" viewBox="0 0 30 40">
    <path fill="#548ABA" fill-rule="nonzero" d="M.37.46A.459.459 0 0 0 0 .92v38.62c0 .254.204.46.455.46h29.09a.457.457 0 0 0 .455-.46V8.276a.463.463 0 0 0-.128-.33L22.6.588a.452.452 0 0 0-.326-.13H.455a.45.45 0 0 0-.043 0 .45.45 0 0 0-.043 0zm.54.92h20.454v7.356c0 .254.203.46.454.46h7.273V39.08H.909V1.38zm21.363.2l6.619 6.696h-6.62V1.58zM7.188 16.552a.457.457 0 0 0-.373.267.466.466 0 0 0 .043.46.455.455 0 0 0 .415.192h9.659a.454.454 0 0 0 .399-.228.464.464 0 0 0 0-.463.454.454 0 0 0-.4-.228H7.274a.45.45 0 0 0-.043 0 .45.45 0 0 0-.043 0zm0 4.597a.457.457 0 0 0-.373.268.466.466 0 0 0 .043.46.455.455 0 0 0 .415.192h15.454a.454.454 0 0 0 .4-.228.464.464 0 0 0 0-.464.454.454 0 0 0-.4-.228H7.273a.45.45 0 0 0-.043 0 .45.45 0 0 0-.043 0zm0 4.598a.457.457 0 0 0-.373.267.466.466 0 0 0 .043.46.455.455 0 0 0 .415.193h15.454a.454.454 0 0 0 .4-.228.464.464 0 0 0 0-.464.454.454 0 0 0-.4-.228H7.273a.45.45 0 0 0-.043 0 .45.45 0 0 0-.043 0zm0 4.598a.457.457 0 0 0-.373.267.466.466 0 0 0 .043.46.455.455 0 0 0 .415.192h9.659a.454.454 0 0 0 .399-.228.464.464 0 0 0 0-.463.454.454 0 0 0-.4-.228H7.274a.45.45 0 0 0-.043 0 .45.45 0 0 0-.043 0z"/>
</svg>
