<svg xmlns="http://www.w3.org/2000/svg" width="68" height="60" viewBox="0 0 68 60">
    <g fill="#FFF" fill-rule="nonzero">
        <path d="M29.859 7.498c12.38 0 22.453 10.071 22.453 22.452 0 12.38-10.073 22.454-22.453 22.454-12.381 0-22.453-10.074-22.453-22.454S17.479 7.498 29.859 7.498zm0 43.303c11.496 0 20.85-9.353 20.85-20.851S41.355 9.1 29.859 9.1c-11.497 0-20.85 9.352-20.85 20.85 0 11.498 9.353 20.851 20.85 20.851z"/>
        <path d="M29.859 9.953c11.026 0 19.998 8.97 19.998 19.997s-8.971 19.998-19.998 19.998c-11.027 0-19.998-8.971-19.998-19.998 0-11.027 8.972-19.997 19.998-19.997zm0 36.331c9.02 0 16.334-7.312 16.334-16.334 0-9.02-7.314-16.334-16.334-16.334-9.021 0-16.335 7.313-16.335 16.334.001 9.022 7.314 16.334 16.335 16.334z"/>
        <path d="M29.859 5.059c13.725 0 24.891 11.165 24.891 24.89 0 13.726-11.166 24.892-24.891 24.892-13.725 0-24.891-11.166-24.891-24.891 0-13.726 11.166-24.891 24.89-24.891zm0 48.198c12.85 0 23.306-10.455 23.306-23.306 0-12.852-10.456-23.306-23.306-23.306C17.008 6.645 6.553 17.1 6.553 29.95c0 12.85 10.455 23.306 23.306 23.306z"/>
        <path d="M29.859 2.503c15.135 0 27.447 12.313 27.447 27.448S44.993 57.4 29.86 57.4C14.724 57.4 2.41 45.086 2.41 29.95c0-15.135 12.313-27.447 27.448-27.447zm0 53.192c14.195 0 25.744-11.549 25.744-25.745 0-14.196-11.55-25.744-25.744-25.744-14.196 0-25.745 11.548-25.745 25.744s11.55 25.745 25.745 25.745z"/>
        <path d="M29.859.37c16.337 0 29.58 13.244 29.58 29.58 0 11.118-6.135 20.802-15.203 25.856a42.273 42.273 0 0 0 3.028-1.109c11.936-4.91 18.377-14 19.145-27.016a.712.712 0 0 1 1.42.084c-.442 7.484-2.754 13.824-6.871 18.842-3.293 4.013-7.732 7.183-13.196 9.423-8.258 3.387-16.208 3.6-18.086 3.6-.227 0-.365-.003-.405-.004a.705.705 0 0 1-.358-.112C13.014 59.016.278 45.971.278 29.95.278 13.614 13.522.37 29.858.37zm0 57.882c15.605 0 28.3-12.696 28.3-28.301 0-15.605-12.695-28.301-28.3-28.301s-28.3 12.696-28.3 28.3c0 15.606 12.695 28.302 28.3 28.302z"/>
    </g>
</svg>
