<svg xmlns="http://www.w3.org/2000/svg" width="112" height="60" viewBox="0 0 112 60">
    <g fill="#FFF" fill-rule="nonzero">
        <path d="M30.21 42.585c-2.751 0-4.126-1.273-5.13-2.203l-.167-.154a.868.868 0 1 1 1.175-1.28l.172.16c.924.855 1.879 1.74 3.95 1.74a.868.868 0 1 1 0 1.737zM8.169 42.405a.868.868 0 0 1-.08-1.733c4.547-.428 10.098-1.56 13.813-2.817a.868.868 0 1 1 .557 1.645c-3.83 1.295-9.54 2.462-14.208 2.902a1.182 1.182 0 0 1-.082.003zM55.652 42.585c-2.752 0-4.126-1.272-5.129-2.201a.87.87 0 0 1 1.18-1.276c.924.857 1.878 1.74 3.95 1.74a.868.868 0 1 1 0 1.737zM33.648 42.4a.869.869 0 0 1-.08-1.733c4.582-.433 10.141-1.564 13.831-2.812a.868.868 0 1 1 .556 1.645c-3.804 1.287-9.52 2.45-14.225 2.897a1.172 1.172 0 0 1-.082.003zM81.094 42.585c-2.51 0-3.844-1.026-4.897-1.988a.867.867 0 0 1-.056-1.226.866.866 0 0 1 1.227-.056c.885.807 1.836 1.533 3.726 1.533a.868.868 0 1 1 0 1.737zM59.126 42.397a.869.869 0 0 1-.082-1.734c4.561-.434 10.262-1.59 13.863-2.808a.871.871 0 0 1 1.1.544.869.869 0 0 1-.544 1.1c-3.77 1.278-9.5 2.44-14.256 2.894a1.264 1.264 0 0 1-.081.004zM84.601 42.395a.867.867 0 0 1-.861-.785.867.867 0 0 1 .78-.948c4.59-.44 10.13-1.57 13.786-2.807 2.144-.72 3.277.327 4.277 1.253.238.221.485.452.764.67a.87.87 0 0 1-1.082 1.36c-.312-.248-.594-.506-.862-.756-.979-.909-1.421-1.255-2.542-.882-3.769 1.276-9.466 2.438-14.174 2.892-.028.001-.057.003-.086.003zM31.77 30.428c-2.603 0-3.884-1.189-4.82-2.056a.869.869 0 0 1 1.181-1.274c.845.784 1.719 1.594 3.64 1.594a.868.868 0 1 1 0 1.736zM11.416 30.225a.868.868 0 0 1-.086-1.733c4.247-.428 9.35-1.477 12.7-2.611a.868.868 0 0 1 .556 1.645c-3.46 1.171-8.719 2.254-13.082 2.694a1.02 1.02 0 0 1-.088.005zM55.652 30.428c-2.37 0-3.628-.966-4.62-1.872a.867.867 0 0 1-.056-1.226.864.864 0 0 1 1.226-.056c.82.747 1.699 1.418 3.45 1.418a.868.868 0 1 1 0 1.736zM35.27 30.228a.869.869 0 0 1-.087-1.732c4.25-.427 9.362-1.478 12.721-2.615a.869.869 0 0 1 .556 1.645c-3.47 1.176-8.736 2.26-13.103 2.698a.992.992 0 0 1-.088.004zM79.533 30.428c-2.213 0-3.487-.863-4.44-1.707a.87.87 0 0 1-.075-1.226.874.874 0 0 1 1.228-.075c.692.615 1.578 1.272 3.287 1.272a.868.868 0 1 1 0 1.736zM59.126 30.232a.87.87 0 0 1-.087-1.733c4.266-.427 9.39-1.48 12.753-2.618a.868.868 0 1 1 .556 1.645c-3.473 1.176-8.753 2.262-13.136 2.701a.907.907 0 0 1-.086.005zM82.98 30.233a.867.867 0 0 1-.085-1.733c4.267-.423 9.403-1.476 12.778-2.62 2.046-.69 3.118.31 4.068 1.19l.37.338a.87.87 0 0 1-1.154 1.299l-.397-.364c-.872-.806-1.269-1.173-2.33-.817-3.488 1.182-8.776 2.268-13.162 2.703-.03.003-.058.004-.088.004zM33.23 20.007c-2.256 0-3.459-.93-4.408-1.802a.867.867 0 0 1-.053-1.227.865.865 0 0 1 1.226-.052c.802.736 1.6 1.345 3.235 1.345a.868.868 0 1 1 0 1.736zM14.194 19.81a.868.868 0 0 1-.088-1.733c3.89-.4 8.61-1.379 11.747-2.435a.867.867 0 1 1 .555 1.645c-3.298 1.112-8.057 2.1-12.124 2.518-.03.002-.06.004-.09.004zM55.666 20.007c-2.098 0-3.306-.819-4.21-1.62a.867.867 0 1 1 1.153-1.3c.646.572 1.468 1.184 3.057 1.184a.868.868 0 1 1 0 1.736zM36.66 19.806a.869.869 0 0 1-.088-1.733c3.928-.405 8.66-1.382 11.774-2.431a.869.869 0 0 1 .555 1.645c-3.224 1.086-8.108 2.096-12.151 2.515-.03.002-.06.004-.09.004zM78.102 20.007c-1.995 0-3.15-.738-3.933-1.383a.868.868 0 1 1 1.102-1.341c.626.513 1.4.988 2.83.988a.868.868 0 1 1 .001 1.736zM59.126 19.804a.87.87 0 0 1-.865-.779.872.872 0 0 1 .775-.954c3.977-.412 8.723-1.389 11.813-2.43a.87.87 0 0 1 .556 1.646c-3.2 1.078-8.098 2.088-12.19 2.513-.03.002-.06.004-.09.004zM81.59 19.799a.87.87 0 0 1-.866-.779.872.872 0 0 1 .775-.954c3.935-.408 8.659-1.383 11.753-2.424 1.942-.668 3.012.323 3.873 1.118l.214.198a.868.868 0 1 1-1.167 1.285l-.227-.207c-.869-.804-1.215-1.062-2.137-.75-3.206 1.08-8.08 2.087-12.13 2.509-.03.002-.06.004-.089.004zM34.376 11.323c-2.012 0-3.172-.792-4.043-1.568a.866.866 0 0 1-.07-1.226.866.866 0 0 1 1.226-.07c.64.57 1.391 1.128 2.887 1.128a.868.868 0 1 1 0 1.736zM16.506 11.115a.868.868 0 0 1-.09-1.732c3.696-.394 7.997-1.291 10.958-2.287a.87.87 0 0 1 .553 1.647c-3.07 1.032-7.516 1.96-11.328 2.367a.884.884 0 0 1-.093.005zM55.652 11.323c-1.926 0-3.044-.727-3.803-1.361a.869.869 0 0 1 1.112-1.334c.596.498 1.335.959 2.691.959a.868.868 0 1 1 0 1.736zM37.783 11.115a.868.868 0 0 1-.092-1.732c3.691-.393 8.119-1.313 11.017-2.287a.87.87 0 0 1 .553 1.647c-3.006 1.01-7.581 1.962-11.385 2.367a.98.98 0 0 1-.093.005zM76.928 11.323c-1.374 0-2.486-.356-3.508-1.121a.87.87 0 0 1 1.045-1.39c.479.36 1.193.775 2.463.775a.868.868 0 1 1 0 1.736zM59.126 11.108a.868.868 0 0 1-.092-1.731c3.728-.4 8.155-1.318 11.02-2.28a.87.87 0 1 1 .553 1.646c-2.97 1-7.548 1.948-11.39 2.36a.854.854 0 0 1-.091.005zM80.429 11.105a.867.867 0 0 1-.092-1.732c3.683-.4 8.08-1.315 10.942-2.277 1.867-.636 2.892.309 3.714 1.069.351.325.375.877.051 1.23a.87.87 0 0 1-1.226.05c-.828-.767-1.133-.995-1.981-.704-3.02 1.016-7.46 1.94-11.313 2.359a.965.965 0 0 1-.095.005zM28.297 56.48c-2.931 0-4.397-1.359-5.469-2.351-1.004-.928-1.506-1.39-2.8-.958-5.4 1.825-13.96 3.309-19.085 3.309a.868.868 0 1 1 0-1.737c4.883 0 13.367-1.474 18.528-3.217 2.27-.774 3.475.346 4.537 1.33 1.002.927 2.039 1.887 4.29 1.887a.868.868 0 1 1 0 1.737z"/>
        <path d="M55.652 56.48c-2.932 0-4.398-1.359-5.469-2.351-1.004-.928-1.508-1.39-2.801-.958-5.399 1.825-13.96 3.309-19.085 3.309a.868.868 0 1 1 0-1.737c4.883 0 13.368-1.474 18.529-3.217 2.27-.774 3.476.346 4.537 1.33 1.002.927 2.039 1.887 4.29 1.887a.868.868 0 1 1 0 1.737z"/>
        <path d="M83.007 56.48c-2.93 0-4.4-1.359-5.47-2.351-1.002-.928-1.511-1.39-2.8-.958-5.399 1.825-13.96 3.309-19.085 3.309a.868.868 0 1 1 0-1.737c4.883 0 13.369-1.474 18.528-3.217 2.271-.774 3.476.346 4.537 1.33 1.003.927 2.037 1.887 4.29 1.887a.868.868 0 1 1 0 1.737z"/>
        <path d="M110.362 56.48c-2.931 0-4.4-1.359-5.47-2.351-1.004-.928-1.51-1.39-2.8-.958-5.4 1.825-13.96 3.309-19.085 3.309a.868.868 0 1 1 0-1.737c4.883 0 13.369-1.474 18.528-3.217 2.273-.774 3.474.346 4.537 1.33 1.003.927 2.037 1.887 4.29 1.887a.868.868 0 1 1 0 1.737zM28.297 59.953c-2.931 0-4.397-1.358-5.469-2.35-1.004-.928-1.506-1.391-2.8-.959-5.4 1.825-13.96 3.31-19.085 3.31a.868.868 0 1 1 0-1.737c4.883 0 13.367-1.474 18.528-3.218 2.27-.773 3.475.346 4.537 1.33 1.002.928 2.039 1.888 4.29 1.888a.868.868 0 1 1 0 1.736z"/>
        <path d="M55.652 59.953c-2.932 0-4.398-1.358-5.469-2.35-1.004-.928-1.508-1.391-2.801-.959-5.399 1.825-13.96 3.31-19.085 3.31a.868.868 0 1 1 0-1.737c4.883 0 13.368-1.474 18.529-3.218 2.27-.773 3.476.346 4.537 1.33 1.002.928 2.039 1.888 4.29 1.888a.868.868 0 1 1 0 1.736z"/>
        <path d="M83.007 59.953c-2.93 0-4.4-1.358-5.47-2.35-1.002-.928-1.511-1.391-2.8-.959-5.399 1.825-13.96 3.31-19.085 3.31a.868.868 0 1 1 0-1.737c4.883 0 13.369-1.474 18.528-3.218 2.271-.773 3.476.346 4.537 1.33 1.003.928 2.037 1.888 4.29 1.888a.868.868 0 1 1 0 1.736z"/>
        <path d="M110.362 59.953c-2.931 0-4.4-1.358-5.47-2.35-1.004-.928-1.51-1.391-2.8-.959-5.4 1.825-13.96 3.31-19.085 3.31a.868.868 0 1 1 0-1.737c4.883 0 13.369-1.474 18.528-3.218 2.273-.773 3.474.346 4.537 1.33 1.003.928 2.037 1.888 4.29 1.888a.868.868 0 1 1 0 1.736zM35.245 4.376c-2.273 0-3.404-1.048-4.229-1.813-.783-.724-1.07-.94-1.87-.666-4.07 1.367-10.489 2.48-14.309 2.48a.868.868 0 1 1 0-1.738c3.601 0 9.9-1.094 13.754-2.389 1.816-.615 2.81.302 3.606 1.04.748.694 1.456 1.35 3.048 1.35a.868.868 0 1 1 0 1.736z"/>
        <path d="M55.652 4.376c-2.273 0-3.403-1.048-4.228-1.813-.782-.724-1.069-.94-1.87-.666-4.07 1.367-10.489 2.48-14.31 2.48a.868.868 0 1 1 0-1.738c3.603 0 9.901-1.094 13.754-2.389 1.817-.615 2.81.302 3.606 1.04.75.694 1.456 1.35 3.048 1.35a.868.868 0 1 1 0 1.736z"/>
        <path d="M76.06 4.376c-2.273 0-3.406-1.048-4.234-1.814-.78-.722-1.067-.938-1.862-.666-4.074 1.368-10.492 2.48-14.312 2.48a.868.868 0 1 1 0-1.737c3.603 0 9.9-1.094 13.754-2.389 1.813-.618 2.804.3 3.6 1.038.75.695 1.46 1.351 3.054 1.351a.868.868 0 1 1 0 1.737z"/>
        <path d="M96.467 4.376c-2.272 0-3.405-1.048-4.233-1.814-.78-.722-1.065-.938-1.862-.666-4.074 1.368-10.493 2.48-14.312 2.48a.868.868 0 1 1 0-1.737c3.602 0 9.9-1.094 13.753-2.389 1.817-.618 2.804.3 3.601 1.038.75.695 1.459 1.351 3.053 1.351a.868.868 0 1 1 0 1.737zM.943 56.48a.869.869 0 0 1-.84-1.092L13.999 3.283a.867.867 0 1 1 1.677.448L1.782 55.835a.868.868 0 0 1-.838.645z"/>
        <path d="M110.362 56.48a.866.866 0 0 1-.838-.645L95.63 3.732a.866.866 0 1 1 1.676-.448L111.2 55.388a.867.867 0 0 1-.838 1.092zM101.813 53.216a.869.869 0 0 1-.846-.675L89.243 1.267a.868.868 0 1 1 1.693-.386l11.724 51.274a.867.867 0 0 1-.847 1.061zM74.459 53.216a.87.87 0 0 1-.865-.788L68.817 1.155a.87.87 0 0 1 1.73-.162l4.777 51.275a.869.869 0 0 1-.865.948zM47.105 53.216h-.038a.87.87 0 0 1-.83-.905l2.17-51.274c.021-.479.46-.865.904-.83.48.02.852.424.831.903l-2.17 51.275a.868.868 0 0 1-.867.831zM19.75 53.216a.868.868 0 0 1-.856-1.02L28.013.921A.863.863 0 0 1 29.019.22a.868.868 0 0 1 .703 1.007L20.604 52.5a.868.868 0 0 1-.854.715zM28.298 56.48a.87.87 0 0 1-.862-.984l6.948-52.103a.868.868 0 1 1 1.722.229l-6.948 52.105a.87.87 0 0 1-.86.753zM55.652 56.48a.868.868 0 0 1-.868-.869V3.508a.868.868 0 1 1 1.737 0V55.61c0 .48-.389.869-.869.869zM83.007 56.48a.87.87 0 0 1-.862-.753L75.198 3.622a.87.87 0 0 1 1.723-.229l6.948 52.103a.871.871 0 0 1-.862.984z"/>
        <path d="M110.362 59.953a.868.868 0 0 1-.869-.868v-3.474a.868.868 0 1 1 1.737 0v3.474c0 .48-.388.868-.868.868zM.943 59.953a.868.868 0 0 1-.869-.868v-3.474a.868.868 0 1 1 1.737 0v3.474c0 .48-.388.868-.868.868z"/>
    </g>
</svg>
