<svg xmlns="http://www.w3.org/2000/svg" width="61" height="64" viewBox="0 0 61 64">
    <g fill="none" fill-rule="evenodd" stroke="#FFF" stroke-linecap="round" stroke-linejoin="round" stroke-width="3.402">
        <path d="M2 58.89V2.213M2.424 2l2.973 2.256h2.974L11.345 2h2.974l2.973 2.256h2.974L23.24 2h2.974l2.973 2.256h2.973L35.134 2h2.974l2.973 2.256h2.974L47.03 2h2.974l2.973 2.256h2.974L58.924 2M2.424 59.122l2.973 2.256h2.974l2.974-2.256h2.974l2.973 2.256h2.974l2.974-2.256h2.974l2.973 2.256h2.973l2.974-2.256h2.974l2.973 2.256h2.974l2.974-2.256h2.974l2.973 2.256h2.974l2.974-2.256M12.672 2.213V58.89M24.565 58.89V2.213M36.459 2.213V58.89M48.352 58.89V2.213M58.934 2.213V58.89"/>
    </g>
</svg>
