<svg xmlns="http://www.w3.org/2000/svg" width="55" height="60" viewBox="0 0 55 60">
    <path fill="#FFF" fill-rule="nonzero" d="M49.448 20.787l4.634-13.322h-4.634V.35H4.97v30.266L.337 43.936h4.634v12.75H3.488v2.965H50.93v-2.965h-1.482v-35.9zm1.296-10.95l-1.296 3.728V9.837h1.296zM19.08 40.422l-.39 1.142H7.935V29.311l6.773-19.474h31.774V22.09l-6.774 19.475H24.99l.39-1.142H19.08v-.001zM7.936 3.314h38.547v4.151h-33.46L7.936 22.09V3.314zm-4.261 38.25l1.296-3.728v3.728H3.675zm4.261 15.122v-12.75h33.46l5.087-14.625v27.375H7.936z"/>
</svg>
