<svg xmlns="http://www.w3.org/2000/svg" width="33" height="60" viewBox="0 0 33 60">
    <path fill="#FFF" fill-rule="nonzero" d="M31.84 5.694l-2.916-1.25c-.313-.104-.625-.104-.834 0l-1.562.834v-2.5c0-.417-.209-.73-.625-.938L22.882.486a1.445 1.445 0 0 0-.938 0L.694 11.216c-.312.208-.52.52-.52.937v39.479a1 1 0 0 0 .729.937l21.146 6.98h.625l3.229-1.042c.416-.104.729-.52.729-1.042v-.625l1.667.521a.664.664 0 0 0 .625 0l2.812-.625c.417-.104.73-.52.73-1.042V6.632c0-.417-.313-.73-.626-.938zM21.736 57.361L2.153 50.903V12.778l19.583-9.896v54.48zm2.813-1.77s-.105 0 0 0v1.353l-1.667.521V2.674l1.562.729V55.59h.105zm3.437-.21l-2.187-.728h-.313V7.882c.104 0 .313 0 .417-.104l1.979-.938v48.542h.104zm2.396-.416l-1.354.417V6.736l1.354.625v47.604z"/>
</svg>
