<svg xmlns="http://www.w3.org/2000/svg" width="60" height="60" viewBox="0 0 60 60">
    <path fill="#FFF" fill-rule="nonzero" d="M60 7.38c0-.36-.3-.66-.66-.72L5.1 0c-.24 0-.42.06-.6.18s-.24.36-.24.54v4.74L.12 11.94V12c-.06.06-.06.12-.06.24v16.68c0 .36.3.66.66.72l3.12.36-3.66 5.7v.06c-.06.06-.06.12-.06.24C0 36 0 36 0 36.06v16.56c0 .36.3.66.66.72L54.9 60h.06c.18 0 .36-.06.48-.18.18-.12.24-.36.24-.54V42.96l4.14-6.42v-.06c.06-.06.06-.12.06-.24V31.14c0-.36-.3-.66-.66-.72l-3.6-.42V19.2l4.14-6.42v-.06c.06-.06.06-.12.06-.24V7.38H60zM5.7 1.56l52.8 6.48v3.48L15.6 6.3 5.64 5.1V1.56h.06zM1.44 13.14l42.9 5.22 9.96 1.2v15.12L1.44 28.2V13.14zm3.9 17.1l49.32 6.06c.06.06.18.06.24.06l3.06.36-3.36 5.22-23.58-2.88-29.04-3.54 3.36-5.28zm48.96 28.2L1.5 51.96V36.9l42.9 5.22 9.96 1.2v15.12h-.06zm4.26-26.64v3.48l-2.76-.36v-3.48l2.76.36zm-3.9-13.62L31.08 15.3l-29.1-3.6 3.36-5.28L28.92 9.3l29.1 3.54-3.36 5.34z"/>
</svg>
