<svg xmlns="http://www.w3.org/2000/svg" width="77" height="60" viewBox="0 0 77 60">
    <path fill="#FFF" fill-rule="nonzero" d="M73.73 57.015V13.17h-1.6a7.354 7.354 0 1 0-10.668 0h-1.2v4.154a37.192 37.192 0 0 0-4.308-2.654V8.954h-2.308v4.615a38.346 38.346 0 0 0-5.954-2.1V8.131h-2.307v2.823a36.438 36.438 0 0 0-5.962-.646V7.3h-2.308v3.008a36.47 36.47 0 0 0-5.961.715V8.131h-2.308v3.407a38.4 38.4 0 0 0-5.961 2.17V8.954h-2.308V14.9a36.83 36.83 0 0 0-3.892 2.43v-4.153h-1.631a7.354 7.354 0 1 0-10.67 0H3.193v43.846H0v2.308h19.854v-2.308h-3.192v-7.615h43.6v7.615h-3.193v2.308h19.854v-2.308l-3.192-.008zM61.739 8.131a5.046 5.046 0 1 1 5.047 5.046 5.054 5.054 0 0 1-5.047-5.046zm-8.092 8.023v30.938h-5.954V13.885a36.83 36.83 0 0 1 5.954 2.269zm-8.261-2.83v33.768h-5.977V12.623c2.009.055 4.01.29 5.977.7zm-8.27-.693v34.461h-5.977V13.415c1.96-.438 3.955-.7 5.962-.784h.015zM28.831 14v33.077h-5.962v-30.77A36.923 36.923 0 0 1 28.831 14zM4.669 8.13a5.046 5.046 0 1 1 5.046 5.047A5.054 5.054 0 0 1 4.67 8.13zm9.685 48.885H5.5V15.477h3.077v10h2.308v-10h3.484v41.538h-.015zm2.308-36.769a32.085 32.085 0 0 1 3.892-2.654v29.5h-3.892V20.246zm39.292 26.846V17.346c1.51.848 2.95 1.815 4.308 2.892v26.847l-4.308.007zm6.615 9.923V15.477h3.077v10h2.308v-10h3.484v41.538H62.57z"/>
</svg>
