<svg xmlns="http://www.w3.org/2000/svg" width="75" height="60" viewBox="0 0 75 60">
    <g fill="#FFF" fill-rule="nonzero">
        <path d="M2.967 27.81l34.865 28.217 19.946-12.486-3-4.784 14.513-.487-6.81 12.892-3-4.784-16.136 10.054h29.352c.892 0 1.621.73 1.621 1.622 0 .892-.73 1.622-1.621 1.622H5.399c-.891 0-1.621-.73-1.621-1.622 0-.892.73-1.622 1.621-1.622h27.73L.94 30.405c-.73-.567-.81-1.621-.243-2.27.567-.73 1.621-.892 2.27-.324z"/>
        <path d="M38.027 44.351c-6.81 0-12.324-5.351-12.324-12 0-5.919 9.73-28.46 10.783-30.973.244-.567.811-.973 1.46-.973.649 0 1.297.406 1.622.973C40.703 3.892 50.35 26.432 50.35 32.351c0 6.649-5.513 12-12.324 12zm0-38.189c-3.405 8.19-9 22.379-9 26.19 0 4.864 4.054 8.756 9.081 8.756 5.027 0 9.081-3.892 9.081-8.757-.08-3.81-5.675-18-9.162-26.189z"/>
    </g>
</svg>
