<svg xmlns="http://www.w3.org/2000/svg" width="40" height="40" viewBox="0 0 40 40">
    <g fill="#548ABA" fill-rule="nonzero">
        <path d="M39.243.81c-.324-.324-.757-.378-1.189-.215L8.216 12.486c-.432.163-.648.595-.648 1.028a.99.99 0 0 0 .756.972l13.135 4.055 4.055 13.135c.162.432.54.756.972.756h.055c.432 0 .81-.27 1.027-.702L39.459 1.946c.163-.378.109-.865-.216-1.135zM26.541 31.406L22.486 18.27a1.134 1.134 0 0 0-.702-.702L8.649 13.514 38.486 1.568 26.541 31.405zM4.54 35.73a.49.49 0 0 0 .379-.162L12 28.486a.523.523 0 0 0 0-.756.523.523 0 0 0-.757 0l-7.08 7.08a.523.523 0 0 0 0 .758.49.49 0 0 0 .378.162zM8.216 20.054a.523.523 0 0 0-.757 0L.324 27.135a.523.523 0 0 0 0 .757c.108.108.27.162.379.162.108 0 .27-.054.378-.162l7.081-7.081c.27-.216.27-.54.054-.757zM11.784 39.351c.108.108.27.163.378.163.108 0 .27-.055.379-.163l7.08-7.08a.523.523 0 0 0 0-.757.523.523 0 0 0-.756 0l-7.081 7.08a.523.523 0 0 0 0 .757z"/>
    </g>
</svg>
