<svg xmlns="http://www.w3.org/2000/svg" width="45" height="60" viewBox="0 0 45 60">
    <g fill="#548ABA" fill-rule="nonzero">
        <path d="M43.636 5.795H32.727v-.681A4.773 4.773 0 0 0 27.955.34h-10.91a4.773 4.773 0 0 0-4.772 4.773v.681H1.363C.612 5.795 0 6.406 0 7.16v51.136c0 .754.61 1.364 1.364 1.364h42.272c.753 0 1.364-.61 1.364-1.364V7.16c0-.753-.61-1.364-1.364-1.364zM15 5.114c0-1.13.916-2.046 2.045-2.046h10.91c1.13 0 2.045.916 2.045 2.046v4.772H15V5.114zm27.273 51.818H2.727V8.522h9.546v2.728c0 .753.61 1.364 1.363 1.364h17.728c.753 0 1.363-.61 1.363-1.364V8.523h9.546v48.409z"/>
        <path d="M8.605 18.75h27.784v2.727H8.605zM8.605 35.114h11.42v2.727H8.605zM8.605 26.932h27.784v2.727H8.605zM30.682 34.623a5.632 5.632 0 0 0-5.618 5.604v.198a5.632 5.632 0 0 0 3.736 5.29l-3.307 6.015 2.387 1.315 3.143-5.713 2.195 2.12 1.896-1.963-2.046-1.978a5.625 5.625 0 0 0 3.246-5.086v-.198a5.632 5.632 0 0 0-5.632-5.604zm2.898 5.816a2.898 2.898 0 0 1-5.796 0v-.212a2.898 2.898 0 0 1 5.796 0v.212z"/>
    </g>
</svg>
