<svg xmlns="http://www.w3.org/2000/svg" width="24" height="18" viewBox="0 0 24 18">
    <g fill="none" fill-rule="nonzero">
        <path  d="M6.562 4.917a.855.855 0 0 1-.296-.01c.127-.11.2-.281.073-.463-.128-.186-.475-.19-.51.09a.311.311 0 0 1-.152-.061c-.058.094-.056.18-.042.283a.563.563 0 0 1-.315-.043.374.374 0 0 0-.014.178.41.41 0 0 1-.309-.088c-.126.137-.293.16-.455.158.066-.147.04-.249.088-.35-.192.04-.41.02-.488-.071.195-.064.122-.25.161-.346-.081.035-.202.013-.24-.056.17-.05.042-.369.216-.469a2.551 2.551 0 0 1-.397-.032c-.516-.088-.977-.467-.957-1.022a.984.984 0 0 1 .292-.65c.123-.127.276-.197.461-.118.218.091.271.323.125.508a.652.652 0 0 1-.09.092c-.013.094-.001.192.073.26.134.121.37.113.557.083a2.085 2.085 0 0 1-.18-.728c-.2-.233-.279-.427-.23-.804-.064-.153-.11-.302-.102-.435.016-.254.217-.345.426-.402.465-.128.957-.09 1.426.01.606-.654 1.682-.196 2.328.113.646-.246 1.502-.44 1.318.5.057-.009.115-.02.173-.032.595-.133.593.418.475.813-.045.15-.108.293-.196.412.178.279.378.556.463.876.11.218.21.43.247.673.107.127.151.305.185.463.028.127.038.195.19.153.004.149-.114.22-.246.204.09.21.175.434.185.673.137.301.207.686.576.772.314.074.597.01.897-.058.793-.178 1.624-.24 2.427-.089a6.4 6.4 0 0 0 .984.113c.322.01.645-.006.99-.028a3.21 3.21 0 0 1 .13-.006c.743-.019 1.42.198 2.1.433.46.16 1.043.346 1.589.4.778.08 1.578-.202 1.65-1.052a1.155 1.155 0 0 0-.966-1.24c-.79-.126-1.482.306-2.198.536-.832.266-1.795.422-2.666.23-.539-.12-1.015-.37-1.339-.786-.735-.947-.463-2.356.606-2.904.611-.312 1.27-.248 1.925-.175.298.034.675.074.98-.185a2.636 2.636 0 0 1 1.092-.559c.196-.055.13-.326-.08-.269.062-.142.183-.224.365-.199a.392.392 0 0 1 .318.307c.142-.092.308-.193.475-.23.36-.082.63.164.447.532-.114-.13-.26-.125-.394-.051-.132.072-.195.205-.337.284.223.018.456-.003.663-.092.173-.074.347-.148.533-.084.22-.056.515-.048.698.107.359-.093.806-.064.954.327.053.139.037.299-.033.43-.072.131-.19.19-.349.212.224-.18.01-.354-.194-.387a.766.766 0 0 0-.544.125.429.429 0 0 1 .172.625.396.396 0 0 0-.152-.182c-.338-.212-.782.2-1.02.407a.874.874 0 0 0 .534.087c.06-.014.119-.075.153-.183.061.135.007.317-.094.42-.101.104-.274.176-.52.147a1.263 1.263 0 0 1-.479-.136c-.5.337-1.208.425-1.708.055-.297.066-.538-.11-.82-.316a6.397 6.397 0 0 0-.228-.162 1.854 1.854 0 0 0-.513-.24c-.475-.136-1.092-.064-1.498.19a.855.855 0 0 0-.416.723c-.051.982.982 1.233 1.757 1.125 1.393-.193 2.62-1.041 4.076-.875 1.541.176 2.396 1.436 2.083 2.882-.137.636-.474 1.24-.94 1.585a1.86 1.86 0 0 1-.08.057h-.002a2.313 2.313 0 0 1-.298.166c-.454.21-1.023.297-1.52.166.042.075.08.155.114.24.079.198.216.357.466.308a.238.238 0 0 1-.25.127c.044.098.081.198.11.301.222.241.347.525.331.845.07.094.137.19.196.29.057.096.107.196.145.302.134.03.272.052.41.054h.002c.358-.018.844.181.883.507a.887.887 0 0 1 .183.708c.09.13.129.26.151.387.043.236.073.485.225.67a.425.425 0 0 1-.247-.052c.029.146.041.297.012.444.056.152.08.292.086.425.006.13-.006.251-.022.37a.561.561 0 0 1 .032.31c.333.193.645.603.442.987.016.41-.15.862-.61 1.01.027-.161.035-.326-.018-.458a.526.526 0 0 1-.204.029.753.753 0 0 1-.268.408.93.93 0 0 1-.489.791c-.187.101-.445.155-.651.072-.17.186-.3.399-.427.616-.134-.266-.177-.456-.166-.671a1.03 1.03 0 0 1-.456-.169c-.288.118-.494.38-.663.627-.076-.268-.107-.509-.063-.745a.553.553 0 0 1-.2-.079 1.88 1.88 0 0 0-.298.47c-.213-.31-.165-.914-.01-1.193-.02-.176-.006-.44.2-.642.231-.227.496-.182.777-.096.323.022.554-.114.728-.362.155-.22.012-.432-.108-.621-.195-.306-.188-.654-.223-1.006-.23-.126-.493-.19-.704-.347-.02.092-.162.25-.278.285-.019-.3-.414-.472-.526-.699l-.024.227c-.155-.314-.58-.515-.788-.816a.692.692 0 0 1-.2-.194c-.088.193-.216.308-.365.448-.01-.278-.173-.513-.331-.766a1.63 1.63 0 0 1-.204-.47c0 .238-.102.47-.202.698-.1.23-.145.342-.159.57l-.064-.067c-.02.103-.078.285-.13.382.24.438.418.787.33 1.34l-.072-.045c-.044.198-.184.349-.359.451-.053.19-.165.355-.275.516-.128.187-.246.307-.23.52-.113-.067-.18-.114-.21-.234a.95.95 0 0 1-.241.153c-.079.147-.171.319-.316.414a1.024 1.024 0 0 1-.308.362c.057.408-.091.888-.523 1.015-.383.327-.749.394-1.183.247.178-.1.319-.194.43-.37a.263.263 0 0 1-.185-.203 1.24 1.24 0 0 1-.594.196c-.214.28-.656.4-.971.223-.187.186-.273.276-.382.505-.2-.24-.305-.505-.273-.82-.09-.01-.153-.049-.188-.115-.212.12-.33.346-.432.552-.187-.247-.222-.677-.102-1.055-.181.08-.314.204-.447.345-.058-.59.22-1.102.77-1.44a.386.386 0 0 1 .026-.025c.243-.225.743-.259 1.006-.051.178.14.331.2.526.1.104-.064.461-.24.55-.355.13-.167.104-.39.222-.568.115-.175.295-.278.402-.464.042-.073.072-.148.098-.223a.74.74 0 0 1-.05-.36 1.054 1.054 0 0 1-.07-.491l-.014.007c-.164.104-.27.107-.45.082.273-.338.122-.664.228-1.034l-.054.041c-.024-.263.185-.696.288-.873a.653.653 0 0 1 .173-.402 4.06 4.06 0 0 1 .658-.634 3.915 3.915 0 0 0-.437.166c-.677.305-1.112.696-1.606 1.213-.642.67-1.54 1.032-2.5 1.073.019.419-.095.829-.417 1.182-.085.204-.228.421-.418.538-.189.225-.4.473-.672.602-.08.108-.165.22-.284.289-.147.223-.302.452-.503.63-.05.092-.109.182-.184.256.096.262.107.652-.124.81l-.006.005c-.175.405-.642.748-1.172.657.096-.119.174-.204.206-.307a.594.594 0 0 1-.246-.168c-.44.236-.882.32-1.326.22-.158.127-.366.174-.565.193-.194.019-.403.01-.565-.108-.133.12-.238.263-.346.403-.144-.268-.172-.563-.125-.882a1.578 1.578 0 0 0-.55.412c-.1-.302-.129-.607.04-.923a.762.762 0 0 0-.355.282c-.112-.515.087-1.087.654-1.295.266-.206.456-.303.646-.298.188.005.354.08.572.276.75.067 1.197-.15 1.475-.753.14-.305.21-.677.291-1 .124-.497.334-.917.565-1.375a.673.673 0 0 0 .059-.163c-.393-.066-.632-.285-.804-.55a.598.598 0 0 1-.392.391c-.074.179-.317.226-.34.462l-.13-.078c-.132.238-.43.384-.399.725a.973.973 0 0 1-.393-.294c-.258.064-.463-.053-.61-.252a.963.963 0 0 1-.466.292c.074-.27-.112-.444-.183-.68a.73.73 0 0 1-.267.142.555.555 0 0 0-.11-.334.7.7 0 0 1-.232.248c0-.435-.388-.77-.41-1.21a1.02 1.02 0 0 1-.294.126c.122-.296-.004-.611.014-.933a.812.812 0 0 1-.157-.424 1.763 1.763 0 0 1-.099-.941 1.792 1.792 0 0 1-.255-.284C.648 8.333.376 8.06.42 7.585c-.109-.378-.09-.712.142-1.05a.714.714 0 0 0 .157.297.307.307 0 0 1 .186-.136 1.257 1.257 0 0 1-.089-.725c-.484-.195-.486-.995-.23-1.315C.484 4.42.29 4.288.093 4.169c.385-.317.883-.222 1.225.245.086-.093.147-.162.271-.209-.028-.218-.148-.387-.302-.536.6-.035.848.258 1.094.842.024.009.082.03.106.042 0-.196-.02-.4-.066-.582l.146.032c.32.187.523.578.6.96.239.167.298.458.281.73-.017.277-.135.602-.421.713-.129.12-.185.294-.2.47-.01.136-.007.274.068.389.104.159.252.281.358.45.117.188.204.383.294.581.097.215.196.436.337.652.142-.19.35-.427.593-.52a.852.852 0 0 1 .132-.248c-.072-.65.23-1.233.707-1.66.02-.376.372-.694.71-1.002.23-.208.453-.41.537-.6zm6.644 10.506a1.638 1.638 0 0 1-.289.187l-.072-.06c.108-.044.213-.102.324-.176l.037.05zM4.829 2.407a1.761 1.761 0 0 0-.117.295l.091-.017.01-.036.014.032c.405-.061.852-.018 1.158.225-.032-.223-.185-.425-.359-.563a2.27 2.27 0 0 1-.797.064z"/>
        <path fill="#FFF" d="M8.189.72c.253.257.562.353.903.345.16-.689-.424-.517-.903-.345zm-3.55 2.966c-.2.031-.27.132-.302.327.137.01.185-.085.335-.089l.005.012c-.246.157-.12.286-.237.516.289.024.33-.16.436-.222l.011.007c-.019.145-.169.27-.13.517.224-.073.204-.44.379-.52l.013.005c-.078.11-.137.392.018.465a.438.438 0 0 1 .06-.237c.042-.071.1-.097.154-.173l.013.004c-.006.065-.098.21.1.275-.033-.189.174-.28.072-.465l.012-.005c.129.04.094.152.167.208.18-.229.461-.247.653-.067.046-.105-.013-.232-.105-.245l.002-.013c.18.026.26.196.19.362.047.069.08.15.088.239.178-.13.237-.515.176-.662l.013-.005c.085.121.149.361.078.591.148-.132.193-.455.157-.586l.013-.004a.707.707 0 0 1 .065.436c.113-.133.155-.427.113-.585l.012-.005c.16.21.2.73.195.994.226-.141.309-.532.297-.808l.013-.003c.085.148.11.386.089.58.182-.19.341-.494.307-.768l.013-.003c.168.167.102.507.277.725.024-.285.136-.342.102-.56a1.117 1.117 0 0 1-.015-.374h.014c.007.103.089.244.143.429.115-.102.16-.224.114-.407-.032-.131-.067-.256-.047-.418h.014c.012.096.091.224.154.39.038.102.058.202.1.302.078-.302.142-.488-.024-.77-.09-.152-.196-.27-.238-.473l.012-.005c.055.114.234.24.37.454.01-.24-.007-.37-.145-.554a1.953 1.953 0 0 1-.153-.239l.01-.009c.125.113.28.124.438.089.286-.064.433-.29.518-.577.067-.22.135-.583-.21-.531-.58.12-1.129.043-1.538-.373C7.852.697 7.686.636 7.472.55 6.927.332 6.23.163 5.842.592c.146.178.297.436.332.66l-.342-.1a.883.883 0 0 0-.194-.5C5.208.559 4.754.518 4.326.635c-.11.03-.258.065-.267.202a.753.753 0 0 0 .08.325c.09-.127.074-.221.008-.343L4.19.778c.104.105.39.103.472-.016l.061.018c-.087.264-.309.188-.396.327a1.06 1.06 0 0 1-.17.202c-.048.484.195.861.733.916.457.047.773-.019.792-.528.01-.264-.12-.496-.366-.554l.015-.06c.533.126.645.626.44 1.074.18.225.377.459.407.755.006.062.01.128.006.195-.015.338-.298.815-.731.652-.208.295-.698.236-.815-.073zm8.156 11.981c-.22.093-.458.146-.69.16-.147-.163-.477-.217-.73-.037.198 0 .207.207.107.408a.624.624 0 0 1-.193.48c.05.044.112.08.183.11.065-.113.142-.23.237-.326-.047-.162.06-.361.19-.45a.763.763 0 0 1 .586-.09c.3.007.718-.152.9-.33l.044.042c-.235.23-.398.356-.71.41.086.083.112.19.09.317-.163-.173-.483-.479-.835-.237a.297.297 0 0 0-.13.23.55.55 0 0 1 .216-.081c.18-.03.282.01.325.089.055.1.036.275-.065.422-.066.095-.131.168-.159.252.345.368 1.043-.144.629-.506l.01-.009c.135.01.236.138.215.341a1.17 1.17 0 0 0 .542-.236.598.598 0 0 1 .195-.327c.113-.137.192-.236.15-.452l.06-.012a.588.588 0 0 1-.115.551c-.143.15-.104.373.033.49.198-.163.21-.465.413-.529.286-.089.36.303.3.578.339-.247.231-.58.127-.897-.084-.253-.073-.492.16-.595l.01.01c-.139.144-.154.479.057.53.217-.183.18-.167.174-.391a.662.662 0 0 1 .085-.355l.012.005a.663.663 0 0 0 .032.395c.2-.146.227-.334.283-.547a.944.944 0 0 1 .14-.312l.013.006c-.043.131-.05.28-.034.422.24-.09.309-.262.31-.49.002-.205-.014-.41.144-.587l.012.005c-.106.293.01.508.008.797v.002c.186-.279.295-.435.291-.768-.002-.192-.006-.345.104-.461l.012.006c-.065.249.007.355.016.54.462-.318.177-.798-.072-1.11l.011-.008c.143.098.276.214.39.367-.128-.557-.322-.637-.476-.777-.172-.157-.228-.393-.208-.616l.013-.001c.072.197.171.36.327.453a.967.967 0 0 0 .106-.692c-.033-.166.002-.305.087-.402h.013c-.057.207-.002.35.066.539.093-.23.224-.506.225-.791 0-.128-.081-.238-.169-.094-.04.066-.073.131-.093.191l-.013-.003c-.015-.082.016-.204.085-.343-.234-.097-.461.279-.538.498l-.013-.003c-.026-.142.088-.404.295-.665-.18-.069-.407.253-.485.425l-.012-.005c-.011-.124.09-.328.265-.537-.173-.035-.407.233-.492.37l-.012-.006c.005-.114.111-.28.283-.45-.184-.018-.476.278-.57.421l-.011-.006c.008-.122.134-.303.333-.48-.251-.018-.579.296-.704.486l-.011-.006c.009-.131.155-.333.382-.523-.2-.009-.403.013-.6.071-.346.106-.45-.152-.26-.405.048-.063.109-.122.173-.178a4.16 4.16 0 0 0-.755.616c.119-.08.245-.144.394-.212l.007.01c-.051.04-.628.455-.603.578.11-.083.23-.153.37-.228l.007.01c-.208.176-.588.49-.617.809.137-.13.304-.204.353-.344l.013.003a.754.754 0 0 1-.22.419.601.601 0 0 0-.05.053c-.22.268-.098.62-.185.956.16-.07.249-.268.366-.394.147-.16.304-.3.366-.498l.013.002c-.044.218-.159.4-.268.568-.157.24-.236.546-.141.827.057-.194.207-.321.252-.47.012.114-.044.24-.097.361-.073.17-.118.354-.085.502.04-.07.094-.14.167-.192l.084.084c-.246.22-.223.352-.345.564-.112.194-.292.299-.409.475-.119.182-.086.396-.23.581-.142.182-.435.281-.638.386h-.002v.001c-.232.118-.5.126-.7-.063l-.004-.004a.299.299 0 0 0-.032-.03c-.18-.142-.59-.113-.75.062.145-.003.259.05.237.22.259-.147.523-.105.797.065.21-.007.387-.03.552-.08l.084.07zM7.055 5.2c.128-.162.17-.293.14-.496-.17.362-.407.631-.57.67l-.01-.01c.165-.148.324-.442.418-.68-.07.059-.14.108-.212.146-.034.3-.333.572-.641.852-.284.258-.577.524-.63.79.233-.177.554-.176.744-.401l.05.035c-.213.298-.42.546-.303.925.116-.317.449-.376.65-.62l.05.035c-.192.285-.29.304-.402.414-.175.172-.186.379-.197.61-.245-.171-.335-.477-.289-.777a.6.6 0 0 1 .086-.241c-.318.124-.788.536-.937.827-.109.213-.173.446-.177.694.226-.3.508-.54.563-.758l.013.002c.024.3-.45.831-.598 1.205-.135.34-.118.698.119.99.072-.19.173-.369.22-.543l.014.002c-.011.21-.095.45-.117.686a.982.982 0 0 0 .337.865A1.93 1.93 0 0 1 5.28 10c-.091-.866.442-1.194.631-1.821h.013c-.023.68-.525.945-.434 1.8.037.352.216.736.376 1.058.127.26.293.501.57.624-.3-.33-.52-.806-.528-1.036l.013-.003c.08.224.406.69.676.948-.062-.176-.184-.32-.24-.503a.85.85 0 0 1 .05-.64c-.018.609.35.84.447 1.242.051.215-.032.455-.145.637a4.932 4.932 0 0 0-.508 1.196c-.105.354-.198.747-.352 1.086-.324.718-.842.914-1.712.881-.125-.113-.3-.294-.484-.3-.165-.004-.342.127-.473.23.077.048.133.12.16.215.281-.167.72-.222.943.035.178-.009.399-.002.566-.029.202-.032.364-.11.588-.253l.034.051c-.223.141-.4.262-.614.32-.169.045-.334.028-.504.035a.45.45 0 0 1 .019.137l-.013.003a.502.502 0 0 0-.472-.315.954.954 0 0 0-.567.203.277.277 0 0 0-.095.126c.052-.02.1-.035.144-.04.303-.041.198.279.114.432l.008.029c.01.044.013.09.01.135a1.5 1.5 0 0 1 .125-.114c.017-.278.242-.41.484-.435.138-.013.366.008.476.043a.37.37 0 0 1 .144.079c.133-.012.249-.018.375-.082.175-.09.399-.25.574-.34l.001-.002.038.048c-.247.149-.394.32-.575.42-.114.062-.222.07-.34.082a.728.728 0 0 1 .012.224l-.013.002c-.034-.157-.16-.243-.254-.284-.13-.058-.31-.06-.45-.042-.134.015-.262.063-.319.177.024-.015.048-.03.072-.043.225-.127.402.067.273.264.223.28-.159.372-.292.577.106.109.252.075.407.06.423-.041.484-.202.576-.5l.014.003a1.56 1.56 0 0 1-.012.326c.529.06 1.271-.048 1.412-.613.113-.123.184-.347.025-.48l.005-.012c.21.028.246.381.112.594-.1.159-.058.36.152.4.049-.106.053-.159.094-.268.033-.09.114-.147.206-.133a2.4 2.4 0 0 0 .16-.24c.15.107.204.207.237.406.171-.137.122-.428.025-.604-.146-.264-.315-.467-.07-.815l.014.002c-.028.372.081.424.188.555.115-.14.133-.31.127-.504-.007-.214-.048-.366.002-.573h.016c.018.319.137.428.13.735.212-.235.326-.453.327-.776 0-.22-.052-.388.017-.603l.016.003c-.038.322.14.477.11.806.17-.147.195-.324.204-.54.006-.161 0-.304.072-.47l.016.005c-.064.278.053.445.037.7.286-.174.33-.369.353-.691.033-.436-.065-.83-.004-1.085h.017c.02.378.308.656.27 1.18.187-.159.17-.359.167-.589-.003-.14-.007-.264.04-.414l.017.001c-.004.243.06.369.078.55.157-.178.1-.393.027-.607-.094-.275-.254-.41-.287-.675l.016-.004c.12.37.422.395.49.901.22-.52.13-1.052-.298-1.404a.916.916 0 0 1-.24-.27l.014-.009c.13.155.27.208.41.284a4.228 4.228 0 0 0-.109-.225l.003-.002c-.214-.385-.115-.751.137-.888l.013.004c-.201.217-.172.481-.023.708.087-.294.34-.55.499-.592l.009.01c-.23.184-.41.494-.319.789a.93.93 0 0 0 .389-.127l.007.01c-.049.095-.178.183-.353.235l.038.095c.235-.027.498-.086.661-.179l.007.015c-.071.117-.308.235-.613.301l.03.075c.267.01.846-.043 1.094-.185l.007.011c-.102.167-.542.336-1.036.355l.013.044c1.137.01 2.279-.575 2.848-1.603.26-.47.696-1.286 1.189-1.33l.005.012a1.59 1.59 0 0 0-.513.493c.248-.154.483-.23.612-.201l.002.013c-.282.079-.672.384-.84.573.417-.275 1.022-.521 1.195-.458l.001.013c-.428.077-1.189.584-1.385.813.784-.467 1.416-.7 2.336-.677l-.014.104c-.211.005-.48.128-.597.331-.076.132-.067.199.089.155a1.987 1.987 0 0 1 1.188 0c.24.07.485.161.696.266.043-1.032-.92-1.297-1.727-1.315v-.013c.727-.136 1.809.084 2.02 1.259.035.196.074.24.172.307-.037-.396.08-.713-.067-1.025l.012-.006c.31.374-.001.959.477 1.618.094.151.189.302.255.466.166-.201.15-.586.107-.891l.013-.004c.055.112.105.229.143.35.054.17.109.35.25.477-.017-.146.014-.29-.008-.451l.013-.003c.046.058.075.268.124.46.063.252.232.35.423.52a1.461 1.461 0 0 0-.105-.628l.012-.005c.09.088.155.236.211.41.124.389.473.58.677.927.097-.122.002-.455-.146-.725a1.747 1.747 0 0 1-.162-.41l.011-.007c.13.147.265.348.405.583.246.415.355.464.81.67a.582.582 0 0 0-.192-.464l.01-.009c.319.104.377.451.399.752.02.295.029.602.19.853.168.26.307.551.101.843a.916.916 0 0 1-.726.39.7.7 0 0 1 .138.193.606.606 0 0 1 .139.002.394.394 0 0 1 .287-.159c.386-.188.465-.528.457-.837l.061-.001c.01.361-.013.704-.35.898.04.036.072.09.09.163l-.008.01c-.084-.144-.261-.162-.372-.025a.441.441 0 0 1 .228.244l.001.002-.011.007-.001-.002c-.12-.192-.377-.217-.62-.142l-.017.005c-.182.06-.322.19-.317.369.023-.025.047-.05.071-.073.258-.249.56-.115.4.286.047.113.05.25.033.388a.832.832 0 0 0 .204.1c-.065-.382.012-.907.495-1.029a.453.453 0 0 1 .04-.008c.108-.112.266-.25.324-.347.122-.208.156-.453.163-.718l.062.002c-.008.286-.006.554-.118.784-.055.112-.157.186-.234.28a.54.54 0 0 1 .33.16l-.004.012c-.133-.062-.383-.092-.544-.027-.364.148-.413.537-.354.878.01-.058.023-.12.038-.186.04-.179.119-.343.235-.442.23-.193.475-.032.42.25.113.177.07.348-.02.504.137.04.31-.01.426-.072.453-.245.44-.69.114-1.014a.96.96 0 0 0 .236-.304l.011.007a.751.751 0 0 1-.095.3.694.694 0 0 1 .201.226c.252-.266.002-.986-.17-1.247l.011-.007c.22.14.38.463.439.78.088.028.168.047.262.01-.056-.2-.198-.655.093-.745.176-.055.294.047.386.167.07-.157-.07-.345-.242-.476-.264-.202-.516-.248-.646-.634l.01-.007c.131.158.277.238.416.336.06-.203-.297-.318-.366-.675l.012-.007c.106.152.23.242.35.337.035-.31.003-.585-.165-.85-.1-.158-.184-.29-.198-.464l.012-.005c.081.17.192.277.296.392-.008-.245-.069-.44-.239-.626-.137-.15-.253-.269-.3-.448l.01-.007c.173.24.388.318.56.518-.04-.277-.07-.404-.264-.629-.162-.186-.307-.316-.36-.522l.011-.007c.132.22.258.228.402.37.012-.426-.444-.588-.803-.517v-.013c.202-.112.375-.155.599-.102-.122-.168-.34-.25-.55-.267-.255.09-.454.19-.701.11v-.013c.135-.01.274-.036.363-.122a7.416 7.416 0 0 0-.39-.044c-.42-.038-.742-.162-.784-.446l.01-.009c.12.165.47.251.66.143-.157-.314-.526-.699-.838-.805l.004-.013c.176.011.411.088.597.233-.023-.219-.354-.455-.583-.55l.003-.012c.122.01.275.058.42.136-.164-.24-.431-.417-.714-.544l.003-.012c.175.004.368.055.54.17-.114-.316-.563-.637-.894-.695l.002-.013c.177-.007.43.054.638.182-.205-.558-.698-1.042-1.323-1.095l.001-.013c.457-.033.827.109 1.102.371.24.04.565.272.921.2-.083-.078-.154-.16-.299-.211l.004-.013a.978.978 0 0 1 .306.113c.213.113.302.08.54 0-.158-.062-.249-.166-.456-.186v-.013c.154-.014.291.024.428.06.156.041.225.068.367-.008-.103-.047-.197-.1-.35-.103v-.014a.909.909 0 0 1 .278.002c.214.03.193.06.348-.064a.7.7 0 0 0-.32-.027l-.004-.013a.87.87 0 0 1 .243-.048c.213-.014.233-.031.374-.207-.136.009-.256-.013-.416.062l-.006-.012c.114-.081.24-.119.365-.154.148-.04.173-.046.25-.177-.113.014-.222.018-.353.095l-.007-.01a.944.944 0 0 1 .267-.158c.166-.07.18-.076.252-.244a.63.63 0 0 0-.234.137l-.01-.009a.844.844 0 0 1 .176-.174c.177-.135.195-.29.24-.508-.104.09-.213.146-.294.303l-.013-.005c.049-.165.153-.288.247-.416.134-.184.123-.343.106-.567-.085.146-.204.22-.254.42l-.013-.003c.02-.396.3-.578.138-1.008-.264-.699-.903-1.206-1.81-1.31-1.419-.162-2.651.686-4.018.875-.919.128-2.075-.229-2.016-1.358.024-.456.256-.74.575-.92.482-.27 1.082-.298 1.608-.148.206.059.398.15.57.264.085.057.161.112.234.166.217.158.405.296.597.295-.218-.306-.557-.581-.909-.683l.004-.012c.354.034.65.2.885.455.253.274.403.441.856.465.28.014.569-.064.825-.22a4.754 4.754 0 0 1-.076-.051c-.127-.088-.186-.1-.339-.045-.331.119-.71.102-.983-.149l.006-.012c.328.159.718.164 1.042.004-.125-.072-.214-.038-.35-.024a1.286 1.286 0 0 1-.875-.198c-.27-.18-.267-.288-.622-.321v-.014c.304-.08.478.084.7.226.258.165.598.262.91.15-.165-.109-.333-.174-.628-.207v-.013c.392-.054.696.063.99.279.285.21.515.424.886.478.218.032.493-.01.568-.257a.286.286 0 0 1-.117.07c-.29.097-.632-.045-.86-.222a3.191 3.191 0 0 1-.228-.199c-.234-.22-.258-.28-.67-.326l-.002-.013c.348-.056.496.028.69.201.08.073.162.14.247.204a.972.972 0 0 0-.713-.588c-.183-.034-.343-.054-.565.065-.196.105-.409.164-.597.02a.6.6 0 0 0-.462-.14l-.003-.013a.534.534 0 0 1 .538.024c.152.109.312.103.465.02.21-.111.42-.138.656-.105.211.03.4.113.552.254.151.14.209.167.39.055.24-.146.506-.268.778-.278.185-.203.552-.3.817-.256a.571.571 0 0 1 .4.247c.044-.09.05-.19.015-.284-.088-.232-.292-.294-.504-.286-.308.012-.606.192-.87.358-.37.231-.668.409-1.09.264l.005-.012c.176.06.376.004.568-.09-.25.02-.517-.02-.75-.05-.347-.043-.819-.106-1.082 0l-.007-.011c.33-.251.702-.155 1.098-.082.158.03.33.057.501.063.266.01.463-.042.69-.185.164-.102.326-.203.49-.268a.554.554 0 0 0-.62.023c-.37.295-.802.337-1.23.248l.002-.013c.396.015.827-.056 1.133-.327-.107 0-.22.048-.331.096-.354.152-.675.105-1.022.096a2.396 2.396 0 0 0-1.149.269l-.006-.012a1.95 1.95 0 0 1 .995-.373.558.558 0 0 0 .44-.213c.156-.176.433-.41.677-.235.01-.198-.204-.228-.355-.19-.312.077-.507.283-.746.46-.12.089-.249.135-.376.167-.235.06-.458.015-.682.194l-.01-.008c.14-.23.432-.244.668-.306a.923.923 0 0 0 .374-.185c.195-.164.125-.482-.153-.396.146.168.072.408-.136.458a2.494 2.494 0 0 0-1.033.53c-.354.3-.72.278-1.087.23-.611-.078-1.25-.062-1.81.225-.944.485-1.175 1.707-.524 2.545.284.366.706.613 1.187.722.835.19 1.77.012 2.566-.244.758-.243 1.434-.643 2.278-.524a1.38 1.38 0 0 1 1.183 1.482c-.08.973-.981 1.348-1.888 1.26-.57-.057-1.166-.245-1.64-.41-.654-.225-1.336-.458-2.042-.444-.448.01-.62.187-1.022.176-.446-.012-.875-.208-1.317-.271a5.571 5.571 0 0 0-1.616.022c-.51.076-1.004.37-1.534.243-.327-.078-.461-.326-.57-.602-.018.215-.013.4.1.628l-.011.006c-.21-.145-.194-.412-.377-.587.031.233.105.493.212.66l-.011.007c-.125-.067-.253-.26-.33-.502-.027.228-.026.406.1.608-.448-.055-.613-.381-.706-.705l.058-.022a.955.955 0 0 0 .38.478c-.042-.33.114-.66-.041-1.043.144.078.353.264.47.43a2.92 2.92 0 0 0 .027-.228 1.747 1.747 0 0 0-.311-.436l.008-.01a.61.61 0 0 1 .257.164 2.11 2.11 0 0 0-.183-.56c-.14-.225-.372-.504-.57-.629l.007-.011c.157.01.383.155.568.376l.091.005c-.017-.049-.03-.103-.044-.16-.122-.235-.339-.541-.531-.683l.007-.01a.685.685 0 0 1 .328.18 1.58 1.58 0 0 0-.101-.29c-.157-.216-.437-.5-.66-.613l.005-.012c.127-.004.308.076.48.213-.076-.18-.194-.364-.312-.549L9.62 2.41a.78.78 0 0 1-.346.156c.048.24.063.486.015.728.014.189-.032.361-.078.533-.063.24-.085.416-.086.661-.133-.077-.226-.228-.3-.381a.538.538 0 0 1-.107.105c-.023.111-.07.213-.1.322-.035.129-.037.24-.033.385-.201-.06-.338-.19-.457-.438-.147.224-.373.361-.55.553l-.013-.12a.795.795 0 0 1-.511.29V5.2zM2.672 7.294c.002.18.1.388.118.545l-.013.001c-.059-.2-.214-.263-.241-.528-.021-.202.042-.494.113-.69.028-.078.066-.154.113-.224.095-.14.047-.218-.053-.38l.011-.007a.808.808 0 0 1 .224.202c.206-.087.279-.328.292-.532.01-.169-.01-.37-.125-.5-.027.226-.1.47-.332.508.006-.211.017-.478-.311-.478a.909.909 0 0 0 .066-.25c-.246.036-.337.19-.332.44.005.237.06.444.394.415l.001.013a.58.58 0 0 1-.226.032c-.056.044-.078.11-.105.162-.133.262-.283.287-.506.105L1.8 6.08c.19.155.218.048.31-.135.03-.058.049-.114.1-.148-.11-.09-.143-.257-.147-.394a.728.728 0 0 1 .063-.349c-.073-.211-.212-.31-.477-.292.022-.11.032-.212.022-.318-.25.11-.276.361-.249.555.049.355.152.506.582.532v.013a1.05 1.05 0 0 1-.186.022c-.096.001-.12.02-.132.126-.033.293-.158.326-.42.275l.012-.06c.207.04.213-.049.233-.233a.308.308 0 0 1 .052-.154c-.187-.081-.28-.264-.313-.483a.179.179 0 0 1-.178-.009.357.357 0 0 1-.2.117 1.198 1.198 0 0 0-.153-.318c-.166.253-.156.637.046.838.164.164.29.053.464-.032l.009.01c-.25.335-.394.616-.12 1.02.352.16.5.302.486.618.071.102.121.283.176.326.127.096.243-.022.303-.15l.012.005c-.01.164-.2.44-.406.254-.058-.052-.086-.12-.122-.183-.015.07-.034.144-.058.227l-.013-.004c.045-.323.01-.678-.266-.85-.169-.106-.317-.08-.399.12.077.15.201.211.312.249-.013.09-.03.168-.102.237.002.114-.051.225-.175.244a.331.331 0 0 1-.238-.067c.014.516.626.554.838.146l.012.005a.639.639 0 0 1-.16.336c.215.189.477.462.483.937l-.013.003c-.062-.21-.131-.32-.219-.411a1.58 1.58 0 0 0 .071.72.597.597 0 0 0 .145-.229l.013.002a.448.448 0 0 1-.05.271c-.08.158-.058.283.048.398a.603.603 0 0 0 .14-.225l.014.002a.448.448 0 0 1-.05.27c-.113.223-.031.448-.052.677.11-.161.413-.297.364-.701l.012-.005c.126.175.089.403.007.597-.138.327-.1.498.068.822.035.07.071.139.102.209.037-.11.022-.169.03-.285.012-.213.111-.37.249-.517l.01.008c-.108.16-.116.337-.095.522.01.087.16.54.171.529.153-.03.186-.33.395-.424l.007.012c-.25.29.05.73.05.97a.47.47 0 0 0 .283-.293c-.02-.154.01-.305.133-.389l.008.01c-.176.286.134.762.478.7-.04-.148-.03-.299.078-.397l.01.008c-.05.113-.02.24.038.355h.001c.05.067.097.136.16.193.082-.246.43-.404.44-.795.002-.12-.023-.238-.108-.318l.006-.012c.2.072.255.322.234.545a.935.935 0 0 1 .131-.145c.172-.163.284-.467.096-.674l.007-.012c.152.07.206.241.202.42.277-.201.224-.471.113-.728a1.27 1.27 0 0 1-.36-.29c-.075.221-.262.449-.221.698-.278-.109-.424-.326-.413-.635l.013-.001c.044.189.132.33.28.41.01-.193.183-.414.219-.632-.139-.21-.222-.458-.19-.697-.23-.23-.358-.522-.35-.84-.443.197-.642.64-.556 1.1l-.013.004c-.057-.197-.101-.412-.077-.609l-.046-.06a1.11 1.11 0 0 1-.351.69l-.01-.009c.107-.125.164-.366.18-.606.019-.305-.054-.419-.182-.685-.118-.248-.254-.582-.384-.8-.112-.188-.263-.3-.394-.541zm-.184-2.482a.552.552 0 0 0-.188-.103.897.897 0 0 1-.049.194.507.507 0 0 1 .237-.09zM19.784 16.73c.036.02.076.032.117.038.04-.107.098-.215.177-.325-.096-.306.1-.547.388-.643a.679.679 0 0 1 .02-.006.513.513 0 0 0-.284-.223c-.178-.065-.383-.066-.539.09a.593.593 0 0 0-.171.372.572.572 0 0 1 .193-.111c.25-.079.314.138.274.334.033.13.024.257-.055.343l-.12.131zm2.054-14.956c-.344.016-.672.229-.911.419.032.064.06.133.085.207.306-.272.809-.695 1.203-.382-.03-.18-.207-.252-.377-.244z"/>
        <path fill="#FFF" d="M5.126 3.27c.03.052.063.102.096.15a.65.65 0 0 1 .399.156.275.275 0 0 0 .237-.11 1.184 1.184 0 0 0-.732-.195zm-.209-.398c.043.09.087.18.135.267.262-.022.569.006.88.208a.714.714 0 0 0 .047-.15c-.228-.31-.665-.374-1.062-.325zm-.26.05c-.02.099-.034.198-.045.294a1.872 1.872 0 0 1-.17-.238c-.262.05-.593.066-.798-.12a.45.45 0 0 1-.145-.316c-.039.035-.046.088-.042.155l-.158.01c-.01-.153.047-.306.192-.373.04-.018.082-.033.118-.06.096-.074.09-.214-.035-.248-.073-.02-.147.022-.205.081a.782.782 0 0 0-.234.515c-.016.45.371.74.783.81.214.037.469.037.764.017.001-.047.004-.093.008-.139a1.295 1.295 0 0 1-.475-.035l.001-.013c.168.023.326-.017.485-.058.013-.101.03-.202.052-.305a2.07 2.07 0 0 0-.096.022zm-1.019.228a.049.049 0 0 1-.048.048.049.049 0 1 1 0-.097c.027 0 .048.022.048.049zm-.124-.131c0 .033-.028.06-.062.06a.06.06 0 0 1-.061-.06.06.06 0 0 1 .061-.06c.034 0 .062.026.062.06zm-.045-.188a.078.078 0 0 1-.08.077.078.078 0 0 1-.079-.077c0-.043.036-.078.08-.078.043 0 .079.035.079.078z"/>
        <path fill="#FFF" d="M5.233 3.716a3.26 3.26 0 0 1-.378-.634 2.773 2.773 0 0 0-.007.572c.09.105.274.131.385.062zm-.881-1.483c.029.211.093.428.186.61.025-.152.062-.322.123-.47a1.015 1.015 0 0 1-.31-.14zM1.626 3.86c.136.189.192.544.17.775a.52.52 0 0 1 .099.012c.044-.163.001-.391-.052-.523.12.08.233.28.19.58a.375.375 0 0 1 .108.112c.088-.184.021-.399-.093-.59-.104-.174-.244-.331-.422-.367zm-.548.606C.912 4.244.678 4.11.41 4.17c.327.246.393.484.531.817.054-.027.05-.057.043-.108A1.04 1.04 0 0 0 .8 4.434c.118.036.274.188.322.453.016.092.093.057.112-.013.039-.15-.07-.297-.155-.408zm-.55 2.418c-.079.21-.065.467.09.637.064.07.146.128.229.116.045-.007.062-.043.068-.083C.706 7.456.63 7.298.63 7.15c.073.12.18.228.332.265a.181.181 0 0 0 .04-.065l.001-.004C.81 7.25.651 7.057.527 6.884zM2.63 4.265c.026.223.055.573.007.84.033.008.061.02.086.035a.882.882 0 0 0 .023-.412c.094.099.145.324.09.536a.564.564 0 0 1 .05.21c.092-.123.112-.28.098-.443a1.28 1.28 0 0 0-.354-.766zm3.907 12.97c.305-.048.657-.37.532-.713a.455.455 0 0 0-.044-.09.312.312 0 0 0-.018-.026.619.619 0 0 1-.058.097c-.022.193-.088.42-.203.533.046-.155.06-.317.052-.46-.037-.005-.062.008-.081.065-.073.214-.033.359-.18.594zm-3.135.11c.138-.22.373-.504.632-.639a.178.178 0 0 0 .009-.017.125.125 0 0 0 .01-.076 1.06 1.06 0 0 0-.537.378 1.26 1.26 0 0 1 .509-.586c.045-.076.012-.13-.08-.102-.443.224-.638.534-.543 1.042zm-.618-.547l.012-.01c.165-.14.355-.244.553-.256h.017a.337.337 0 0 0 .003-.154c-.168.03-.28.076-.47.216.123-.195.304-.319.515-.412.03-.067.093-.192-.03-.175a.768.768 0 0 0-.6.791zm.267-1.329c-.317.128-.484.365-.544.688a1.3 1.3 0 0 1 .601-.26.377.377 0 0 1 .072-.155.938.938 0 0 0-.365.136.788.788 0 0 1 .383-.289.254.254 0 0 0-.147-.12zm7.328.807c.19-.101.36-.182.556-.25a.912.912 0 0 1 .29-.207.128.128 0 0 0 .016-.093c-.238.028-.438.145-.622.282.143-.211.37-.397.618-.436-.01-.075-.091-.08-.186-.064-.31.054-.596.458-.672.768zm.397.703c.134-.183.202-.303.424-.396l.004.006a.501.501 0 0 0 .153-.343c-.166.036-.31.198-.444.35a.862.862 0 0 1 .504-.56c.031-.094.003-.183-.142-.106-.453.242-.582.732-.5 1.049zm.868.5c.13-.425.386-.496.572-.763a.332.332 0 0 0 .047-.147c-.22.03-.423.255-.558.494.062-.249.256-.582.512-.66a.308.308 0 0 0-.141-.01c-.365.042-.624.721-.432 1.087zm2.123-.164c.412-.072.726-.24.714-.638-.004-.12-.034-.223-.106-.228.042.237-.157.567-.378.676.126-.148.224-.355.188-.507-.12.226-.255.526-.418.697zm5.615-.342c.122-.167.28-.31.425-.455.037-.037.038-.096.04-.15-.11.02-.228.1-.355.238a.519.519 0 0 1 .348-.371c.03-.088.05-.263-.119-.198-.346.133-.382.65-.339.936zm.741-.02c.078-.308.285-.533.464-.57.044-.166-.057-.248-.254-.053-.292.288-.39.632-.353 1.003.118-.156.278-.31.452-.403.168-.088.19-.102.131-.318-.132-.013-.29.125-.44.341zm3.342-1.112c-.053-.19-.14-.42-.25-.54-.071.348.212.545.224.866.212-.2.317-.618.138-.858-.05-.066-.112-.126-.182-.143-.078-.018-.072.04-.044.081.09.132.118.389.114.594zm-2.25 1.753c.068-.163.184-.318.299-.467.107-.14.213-.255.16-.399-.142-.077-.275.232-.359.503.031-.403.128-.689.317-.725-.017-.129-.143-.143-.269.016-.202.257-.23.788-.148 1.072z"/>
        <path  d="M7.614 11.724a.283.283 0 0 1 .136.38.292.292 0 0 1-.379.156.283.283 0 0 1-.135-.38.293.293 0 0 1 .378-.156zM7.072 12.701a.276.276 0 0 1 .37-.104.265.265 0 0 1 .083.37.276.276 0 0 1-.37.104.265.265 0 0 1-.083-.37zM7.35 10.579c.144.057.208.232.142.391-.065.159-.235.242-.38.184-.143-.057-.207-.232-.141-.39.065-.16.235-.242.379-.185zM18.914 10.326c.242 0 .44.194.44.432a.436.436 0 0 1-.44.43.436.436 0 0 1-.44-.43c0-.238.197-.432.44-.432zM20.299 10.73c.19 0 .343.15.343.336a.34.34 0 0 1-.343.336.34.34 0 0 1-.343-.336.34.34 0 0 1 .343-.337zM19.773 9.446a.405.405 0 1 1-.001.81.405.405 0 0 1 .001-.81zM18.708 8.69c.214 0 .387.17.387.379 0 .21-.173.38-.387.38a.383.383 0 0 1-.387-.38c0-.21.174-.38.387-.38zM17.764 7.89c.153-.063.323-.003.381.133.058.137-.019.298-.17.36-.153.062-.324.003-.382-.134-.057-.136.02-.297.171-.36zM20.036 6.865c.237.067.4.225.363.353-.038.128-.261.178-.5.111-.237-.067-.4-.225-.362-.353.037-.129.26-.178.499-.111zM21.392 6.891c.224-.091.447-.069.497.05.05.119-.091.29-.315.38-.224.092-.447.07-.497-.05-.05-.118.09-.288.315-.38zM18.784 6.37c.234.079.389.245.345.371-.045.126-.27.165-.504.086-.234-.079-.389-.245-.345-.371.045-.126.27-.165.504-.086zM19.311 4.126c.188-.063.378-.009.424.122.046.13-.07.288-.258.351-.188.064-.378.01-.424-.121-.045-.13.07-.288.258-.352zM21.147 3.723c.255.037.442.197.418.357-.024.16-.25.26-.505.224-.254-.037-.441-.197-.417-.357.024-.16.25-.26.504-.224zM22.71 4.808c.107.24.064.49-.096.56-.16.068-.377-.071-.484-.311-.106-.24-.063-.49.097-.56.16-.068.377.071.483.311zM22.732 5.887c.124.066.141.269.04.453-.103.184-.286.28-.41.214-.123-.066-.14-.27-.039-.453.102-.184.285-.28.409-.214zM14.255 7.797c.146 0 .264.116.264.259a.261.261 0 0 1-.264.259.261.261 0 0 1-.263-.26c0-.142.118-.258.263-.258zM15.232 7.373c.163-.084.358-.035.434.109.076.144.004.328-.16.411-.163.084-.357.035-.433-.109-.076-.144-.005-.328.159-.411zM12.73 8.313c.143-.114.346-.102.453.027.107.13.078.327-.065.441-.143.115-.346.102-.453-.027-.107-.13-.078-.327.065-.441zM11.828 7.67c.212.027.368.163.35.305-.018.141-.205.235-.417.208-.212-.026-.369-.163-.35-.305.018-.141.205-.235.417-.208zM11.164 8.732c.17-.156.418-.168.553-.026.135.141.107.383-.062.54-.17.155-.417.167-.553.025-.135-.141-.107-.383.062-.54zM10.602 7.64c.137.097.188.258.114.358-.074.1-.246.102-.383.004-.137-.098-.189-.26-.114-.36.074-.1.246-.1.383-.003zM7.55 9.27c.208 0 .377.166.377.37 0 .205-.169.372-.378.372a.375.375 0 0 1-.377-.371c0-.205.169-.371.377-.371zM6.185 9.08c.06-.241.22-.41.357-.376.137.033.198.255.138.495s-.22.409-.357.376c-.136-.033-.198-.255-.138-.496zM7.017 7.728c.11-.14.27-.199.359-.132.088.066.072.234-.038.374-.109.14-.27.199-.358.132-.089-.066-.072-.234.037-.374zM7.98 8.301a.392.392 0 0 1 .535-.107c.172.117.21.354.085.53a.392.392 0 0 1-.536.108.375.375 0 0 1-.085-.53zM10.178 9.623c.15-.194.371-.276.495-.183.123.092.102.323-.048.517-.15.193-.371.275-.495.183-.124-.092-.102-.324.048-.517zM9.471 8.542c.145-.166.391-.192.55-.059.158.134.168.376.023.542-.145.166-.391.192-.55.059-.157-.133-.168-.376-.023-.542zM9.318 7.196c.156 0 .282.124.282.276a.279.279 0 0 1-.282.276.279.279 0 0 1-.28-.276c0-.152.125-.276.28-.276zM20.906 11.143c.168.187.335.283.608.148.237-.117.404-.017.587.122.18.137.31.302.25.57-.043.187-.148.419.046.674-.322-.208-.232-.422-.202-.682.02-.165-.073-.31-.199-.415-.122-.102-.22-.185-.433-.102-.312.121-.639-.05-.657-.315zm.544.973c.118.163.272.202.398.338.131.141.177.347.093.507-.058-.266-.117-.338-.2-.432-.12-.137-.27-.213-.291-.413zm-5.399.828c.191.133.227.307.216.478-.016.252-.095.376-.318.493-.14.073-.349.235-.395.472l-.013-.002c-.084-.382.174-.575.376-.663.133-.058.16-.206.154-.332-.005-.098-.032-.202-.14-.278-.382-.264-.321-.655-.222-.935l.013.002c-.033.437.094.602.33.765zm-1.198 1.574l-.013-.003c-.061-.255.075-.302.218-.535.1-.164.206-.405.1-.591l.012-.006c.217.217.167.468.008.703-.127.188-.31.295-.325.432zm-.622-1.397a.155.155 0 0 1 .098.037c.035.035.038.088.004.142-.047.075-.058.076-.094-.015-.034-.087-.05-.158-.008-.164zm-8.094 1.062c.025.016 0 .131-.002.164-.003.059-.031.107-.06.107-.03 0-.04-.07-.024-.152.017-.084.055-.137.086-.119zm.112-.085c.036 0 .062.068.062.152 0 .16-.096.212-.1.076-.002-.075.007-.096.007-.166 0-.035-.004-.062.031-.062zm.21-.127c.013-.001.032.025.064.077.056.143-.012.316-.083.191-.024-.035-.031-.119-.015-.184.013-.056.021-.083.035-.084zm.169-.163c.016 0 .038.007.063.023.06.064.095.304.023.303-.032 0-.08-.06-.106-.135-.04-.118-.03-.19.02-.191zm.199-.153c.01-.002.025.006.047.023a.53.53 0 0 1 .078.182c-.001.065-.026.1-.056.076-.03-.024-.066-.107-.078-.184-.01-.062-.008-.093.009-.097zm.216-.315c.049-.008.136.09.155.17 0 .132-.112.121-.166-.016-.023-.06-.03-.124-.012-.141a.051.051 0 0 1 .023-.013zm3.93-6.725c.07.052.197.09.29.097.23.018.146.157-.096.15-.12-.005-.238-.044-.286-.132-.046-.085.004-.18.091-.115zM6.046 9.517c-.138.12-.173.293-.146.386-.183-.05-.076-.427.146-.386zm-.097.709c-.023-.14.197-.414.173-.555-.128.103-.314.378-.173.555zm.121.401c-.044-.246.182-.558.11-.712-.107.178-.319.515-.11.712zm.142.296c-.005-.114.006-.239.039-.366.037-.148.12-.303.039-.431-.075.218-.304.599-.078.797zm-2.051.506c-.006.105-.003.239.128.272-.191.128-.226-.137-.128-.272zm.306-.532c.06.183-.012.46.128.618-.335.034-.148-.544-.128-.618zm-.165.316c.008.107.003.334.164.378-.303.117-.219-.285-.164-.378zm-1.77-3.308c.126.064.144.045.151.142-.128-.036-.15-.026-.151-.142zm.163.308c-.158-.028-.186-.005-.186-.143.118.053.143.046.186.143zm.051.376c-.01-.088-.032-.107-.117-.135-.16-.052-.214.066-.081.108.055.017.13.002.198.027zm-.152-.318c.06.02.096.037.123.113-.08-.029-.217.022-.236-.086-.017-.094.039-.051.113-.027zm-.065-.514c.095.022.114.004.128.1-.114-.017-.128-.008-.128-.1zm-.959-1.63a.721.721 0 0 1 .453.368c.182.345-.073.604-.375.38a6.186 6.186 0 0 0-.317-.203c.136 0 .238.086.357.135.154.064.205.003.224-.186.022-.214-.157-.345-.342-.494zm-.023.021a.432.432 0 0 0-.257.44c-.226-.093-.192-.293-.139-.374.061-.092.208-.132.396-.066zm4.808-2.84c-.2.07.009.294-.05.442.232-.035-.01-.331.05-.441zm.068-.236c-.14.175.111.283.1.488.192-.146-.1-.36-.1-.488zm-.016-.259c-.1.21.159.248.202.424.176-.142-.17-.293-.202-.424zm-.084-.334c-.04.236.184.234.26.413.081-.25-.21-.3-.26-.413zm-.08-.244c.068.138.217.207.309.323.085-.179-.247-.337-.31-.323zm2.988-.726a.539.539 0 0 1 .24.034c.098.056.084.065-.096.067-.2.001-.206.008-.109.114.147.159.127.216-.035.104-.189-.13-.234-.12-.234.054 0 .082-.028.166-.063.186-.033.021-.061-.01-.061-.068a.402.402 0 0 0-.107-.22c-.091-.098-.094-.122-.016-.17.097-.06.308-.098.481-.101zM6.778.783c.05.025.096.057.136.095.058.055.144.048.216.086a.444.444 0 0 1 .201.213l-.068.043c-.05-.104-.136-.168-.225-.164a.536.536 0 0 1 .044.213.611.611 0 0 0 .405.387l-.007.03a1.234 1.234 0 0 1-.307-.066c-.06-.02-.127-.055-.195-.033a.559.559 0 0 1-.822.089c.052.13.125.238.275.277l-.008.03c-.385-.059-.382-.324-.53-.651-.138-.304-.44-.462-.864-.452L5.026.848c.41-.065.75.001.948.347a.551.551 0 0 1 .487-.469.452.452 0 0 1 .26-.099c.322-.031.639.11.788.341l-.062.054c-.13-.2-.493-.332-.67-.24h.001z"/>
        <path fill="#FFF" d="M6.536.903c.219 0 .396.174.396.39 0 .214-.177.389-.396.389a.393.393 0 0 1-.397-.39c0-.215.178-.39.397-.39z"/>
        <path  d="M6.473 1.005c.15 0 .27.12.27.266a.268.268 0 0 1-.27.266.268.268 0 0 1-.271-.266.124.124 0 0 0 .23-.063.123.123 0 0 0-.16-.116.272.272 0 0 1 .2-.087z"/>
    </g>
</svg>
