<svg xmlns="http://www.w3.org/2000/svg" width="24" height="24" viewBox="0 0 24 24">
    <g fill-rule="nonzero">
        <path d="M22.383 18.29l-.91-.378v1.54h-.757v-1.54l-.86.379-.909-.38v1.542h-.758v-1.541l-.858.379-.91-.38v1.542h-1.01v-5.306c0-.151-.102-.252-.253-.252-.152 0-.253.1-.253.252v1.01h-.758v-7.83c0-.152-.1-.253-.252-.253s-.253.1-.253.252v.758h-.505l-1.263-5.962h-.506L10.03 8.084H9.6v-.758c0-.151-.101-.252-.253-.252-.151 0-.252.1-.252.252v7.832h-.758v-1.01c0-.152-.101-.253-.253-.253-.151 0-.252.1-.252.252v5.306h-1.01v-1.541l-.91.379-.86-.38v1.542h-.757v-1.541l-.91.379-.859-.38v1.542h-.758v-1.541l-.91.379L0 17.91V24H23.242v-6.088l-.859.379zm-7.478-.606H13.39v-1.591a.23.23 0 0 0-.075-.177l-.278-.253h1.869v2.021zm-4.547 3.967c0-.683.53-1.163 1.288-1.188.733 0 1.238.505 1.238 1.188v1.844h-2.526V21.65zm3.031.833h.506v1.01h-.506v-1.01zm.506-.505h-.506v-.328c0-.96-.707-1.643-1.692-1.693H11.622h-.026c-.985.025-1.743.758-1.743 1.693v.328h-.506v-3.79h.758v.758c0 .152.101.253.253.253.151 0 .253-.101.253-.253v-.758h.757v.758c0 .152.101.253.253.253s.253-.101.253-.253v-.758h.758v.758c0 .152.1.253.252.253s.253-.101.253-.253v-.758h.758v3.79zm-5.558-6.316H10.206l-.278.253a.273.273 0 0 0-.075.177v1.591H8.337v-2.02zm3.284-.631l1.263 1.187v1.465h-2.526V16.22l1.263-1.187zm1.44-2.4c-.025-.076-.05-.177-.076-.253h.657v.253h-.58zm-2.855 0H9.6v-.253h.682a.487.487 0 0 0-.076.253zm1.061-4.043l-.379.91c0 .025-.025.05-.025.101v1.01h-.505V9.55c0-.026 0-.076-.025-.102l-.405-.859h1.34zm2.047 0l-.405.86c-.025.025-.025.075-.025.1v1.062h-.505V9.549c0-.025 0-.075-.025-.1l-.405-.86h1.365zm-.657 3.285a1.455 1.455 0 0 0-1.01-.405 1.41 1.41 0 0 0-1.011.405h-1.01v-.758h4.041v.758h-1.01zM9.853 10.61H9.6V9.069l.253.556v.986zm1.515-.96l.253-.607.253.556v1.01h-.506v-.96zm2.021.96v-.986l.253-.556v1.542h-.253zm-1.743 1.364c.53 0 .96.43.96.96s-.454.96-.96.96a.96.96 0 1 1 0-1.92zm-.05-8.615l1.01 4.724h-.732v-.758c0-.151-.101-.252-.253-.252s-.253.1-.253.252v.758h-.808l1.036-4.724zM9.6 13.137h.581a1.468 1.468 0 0 0 1.44 1.263c.733 0 1.339-.556 1.44-1.263h.581v2.02h-.253v-.252c0-.151-.1-.252-.252-.252s-.253.1-.253.252v.253h-.379l-.707-.657a.244.244 0 0 0-.354 0l-.707.657h-.38v-.253c0-.151-.1-.252-.252-.252-.151 0-.252.1-.252.252v.253H9.6v-2.021zM.505 18.695l.354.151.404-.177V19.958h1.769v-1.263l.353.151.404-.177v1.289H5.558v-1.263l.354.151.404-.177v1.289H7.83v3.537H.506v-4.8zm7.832 4.8v-5.306h.505v5.306h-.505zm1.01-1.01h.506v1.01h-.506v-1.01zm5.053 1.01v-5.306h.505v5.306H14.4zm8.337 0H15.41v-3.537h1.515v-1.289l.405.177.353-.151v1.263H19.453v-1.289l.404.177.354-.151v1.263H21.979v-1.289l.404.177.354-.151v4.8zM10.939 2.021l.657-.354.657.354-.127-.733.53-.53-.732-.101L11.596 0l-.329.657-.732.1.53.531z"/>
        <path d="M11.621 13.39c.152 0 .253-.102.253-.253v-.505c0-.152-.101-.253-.253-.253s-.253.101-.253.253v.505c0 .151.101.252.253.252zM10.611 21.979h1v1h-1z"/>
        <path d="M11.368 21.979h1v1h-1z"/>
        <path d="M12.126 21.979h1v1h-1zM10.611 21.221h1v1h-1z"/>
        <path d="M11.368 21.221h1v1h-1z"/>
        <path d="M12.126 21.221h1v1h-1zM10.611 22.737h1v1h-1z"/>
        <path d="M11.368 22.737h1v1h-1z"/>
        <path d="M12.126 22.737h1v1h-1zM11.621 16.674c.152 0 .253-.101.253-.253v-.253c0-.151-.101-.252-.253-.252s-.253.1-.253.252v.253c0 .152.101.253.253.253zM13.895 16.674c0 .151.1.252.252.252s.253-.1.253-.252v-.506c0-.151-.101-.252-.253-.252-.151 0-.252.1-.252.252v.506zM9.347 16.674v-.506c0-.151-.1-.252-.252-.252s-.253.1-.253.252v.506c0 .151.101.252.253.252.151 0 .252-.1.252-.252zM16.926 20.716h1v1h-1zM19.958 20.716h1v1h-1zM2.779 20.716h1v1h-1zM5.811 20.716h1v1h-1zM11.368 6.316h1v1h-1zM11.368 5.305h1v1h-1z"/>
    </g>
</svg>
