<?xml version="1.0" encoding="utf-8"?>
<!-- Generator: Adobe Illustrator 17.0.0, SVG Export Plug-In . SVG Version: 6.00 Build 0)  -->
<!DOCTYPE svg PUBLIC "-//W3C//DTD SVG 1.1//EN" "http://www.w3.org/Graphics/SVG/1.1/DTD/svg11.dtd">
<svg version="1.1" id="Слой_1" xmlns="http://www.w3.org/2000/svg" xmlns:xlink="http://www.w3.org/1999/xlink" x="0px" y="0px"
	 width="24px" height="24px" viewBox="-33.332 0.95 24 24" enable-background="new -33.332 0.95 24 24" xml:space="preserve">
<g>
	<path fill="#FFFFFF" d="M-33.332,0.95h24v24h-24V0.95z"/>
	<path d="M-9.457,23.065c-2.021-1.271-5.13-3.264-5.405-3.538c-0.125-0.125-0.691-0.453-1.442-0.86l1.343-1.856
		c0.05-0.07,0.064-0.16,0.036-0.242l-0.467-1.363c0.268-0.15,0.715-0.458,1.039-0.972l0.738,2.478l1.217,3.896
		c0.044,0.14,0.193,0.218,0.334,0.174c0.04-0.013,0.076-0.034,0.106-0.064l2.003-1.97c0.101-0.1,0.105-0.262,0.01-0.367
		l-2.118-2.347l-1.112-3.64c-0.023-0.077-0.08-0.14-0.155-0.17l-0.625-0.248c0.014-0.014,0.026-0.031,0.036-0.048l0.709-1.283
		c0.055-0.099,0.035-0.223-0.047-0.301l-1.106-1.048l-1.087-3.202c-0.013-0.035-0.033-0.067-0.06-0.093l0.018-0.459
		c0.001-0.024-0.006-0.047-0.011-0.07c0.554-0.429,0.655-1.226,0.226-1.78C-15.52,3.38-15.894,3.198-16.289,3.2
		c-0.704,0-1.276,0.572-1.276,1.275c0,0.38,0.17,0.717,0.434,0.95l-0.126,0.137l-1.102,0.815l-1.342,0.357
		c-0.045,0.009-0.427,0.093-0.632,0.363l-0.16-0.978c-0.006-0.035-0.019-0.068-0.038-0.098c-0.09-0.143-0.896-1.403-1.574-1.715
		c-0.32-0.15-2.488,1.064-3.138,1.635c-0.153,0.135-0.62,0.545-0.484,0.977c0.047,0.15,0.186,0.596,2.232,0.138l0.174,1.02
		c-0.196,0.256-0.643,0.863-0.724,1.185c-0.068,0.27-0.249,1.135-0.326,1.506l-1.537,0.323c-0.077,0.016-0.143,0.065-0.18,0.134
		l-0.922,1.717c-0.133,0.145-0.63,0.73-0.55,1.258c0.037,0.235,0.185,0.439,0.398,0.546c0.21,0.116,0.407,0.175,0.59,0.175
		c0.081,0,0.16-0.012,0.235-0.035c0.239-0.074,0.426-0.254,0.574-0.549c0.178-0.355,0.235-0.62,0.252-0.734l0.524-1.011l0.198-0.02
		l-0.1,0.365c-0.079,0.071-0.142,0.159-0.184,0.257l-0.188,0.44c-0.16,0.378,0.015,0.815,0.393,0.976l0.22,0.094
		c0.377,0.162,0.814-0.013,0.976-0.39c0-0.001,0.001-0.002,0.001-0.003l0.187-0.44c0.075-0.176,0.078-0.375,0.01-0.554
		c0.099-0.292,0.19-0.618,0.254-0.858l1.236,0.466l-0.095,0.266c-0.014,0.041-0.018,0.084-0.012,0.127
		c0.007,0.05,0.081,0.498,0.45,0.669c0.147,0.067,0.29,0.093,0.421,0.093c0.379,0,0.664-0.21,0.68-0.222
		c0.039-0.029,0.069-0.068,0.087-0.113l0.146-0.364l2.17,0.713l0.709,1.572l-1.177,1.793c-1.164-0.6-2.25-1.145-2.66-1.35
		c-0.046-0.024-0.098-0.033-0.15-0.027c-0.453-0.028-5.442-0.604-8.752-0.992c-0.141-0.016-0.269,0.081-0.293,0.22l-0.297,1.782
		c-0.015,0.088,0.016,0.177,0.081,0.238l1.222,1.134c-0.615,0.934-3.335,5.052-3.826,5.715c-0.087,0.117-0.063,0.283,0.055,0.371
		c0.046,0.034,0.102,0.053,0.159,0.052h23.442c0.144,0,0.262-0.115,0.266-0.259l0.026-1.045C-9.33,23.203-9.377,23.115-9.457,23.065
		z M-12.553,16.245c0.01,0.038,0.03,0.072,0.057,0.1l1.987,2.202l-1.512,1.487l-1.086-3.477l-0.923-3.096
		c0.057-0.248,0.081-0.502,0.07-0.756c-0.002-0.057-0.007-0.11-0.012-0.165l0.327,0.13L-12.553,16.245z M-14.815,9.515
		c0.013,0.038,0.035,0.072,0.064,0.1l1.011,0.958l-0.549,0.994c-0.292-0.448-0.768-0.752-1.384-1.02
		c0.001-0.015,0.005-0.03,0.004-0.045c-0.002-0.158,0.052-1.653,0.11-3.18L-14.815,9.515L-14.815,9.515z M-19.465,10.043l0.13-0.1
		c0.005,0,0.009,0.003,0.014,0.003c0.055,0,0.109-0.018,0.153-0.05l1.176-0.855l1.833,0.36c-0.017,0.493-0.025,0.78-0.028,0.948
		c-0.031,0.034-0.056,0.072-0.075,0.114c-0.06,0.04-0.34,0.222-1.332,0.238C-18.567,10.721-19.194,10.285-19.465,10.043z
		 M-16.289,3.636c0.464,0.016,0.827,0.405,0.811,0.868c-0.015,0.441-0.369,0.795-0.811,0.811c-0.464-0.016-0.827-0.405-0.811-0.868
		C-17.084,4.006-16.73,3.652-16.289,3.636z M-19.925,7.42c0.053-0.084,0.226-0.153,0.342-0.177l1.407-0.374
		c0.032-0.008,0.062-0.023,0.088-0.042l1.163-0.86c0.013-0.01,0.026-0.021,0.037-0.033l0.166-0.181
		c0.018-0.021,0.032-0.045,0.042-0.07c0.124,0.04,0.254,0.068,0.391,0.068c0.092,0,0.182-0.011,0.268-0.03
		c-0.055,1.433-0.094,2.442-0.12,3.152l-1.691-0.333l0.04-0.7l0.06-0.015c0.019-0.005,0.038-0.011,0.055-0.02l0.88-0.435
		c0.129-0.064,0.182-0.221,0.118-0.35c-0.064-0.129-0.221-0.182-0.35-0.118l-0.854,0.422l-1.629,0.394
		c-0.035,0.012-0.197,0.048-0.3-0.009c-0.022-0.012-0.088-0.048-0.123-0.2C-19.945,7.464-19.938,7.441-19.925,7.42L-19.925,7.42z
		 M-20.065,8.167c0.123,0.066,0.261,0.099,0.4,0.097c0.102,0.001,0.203-0.015,0.3-0.045l1.042-0.251l-0.04,0.697l-0.773,0.562
		c-0.02-0.019-0.044-0.034-0.069-0.045l-0.841-0.343l-0.122-0.742C-20.133,8.127-20.098,8.149-20.065,8.167z M-24.01,13.243
		c-0.026,0.075-0.018,0.157,0.022,0.225c0.037,0.06,0.042,0.13,0.015,0.193l-0.187,0.44c-0.047,0.108-0.171,0.158-0.28,0.113
		l-0.22-0.094c-0.108-0.046-0.158-0.171-0.112-0.279l0.188-0.44c0.016-0.037,0.043-0.069,0.077-0.092
		c0.052-0.036,0.09-0.089,0.106-0.15l0.172-0.623l0.445-0.028C-23.848,12.739-23.928,13.01-24.01,13.243z M-23.187,11.903
		c-0.038-0.015-0.079-0.02-0.12-0.016l-1.877,0.19c-0.089,0.009-0.168,0.062-0.209,0.142l-0.611,1.18
		c-0.016,0.031-0.026,0.065-0.029,0.1c0,0.002-0.024,0.238-0.205,0.6c-0.08,0.158-0.163,0.249-0.256,0.278
		c-0.125,0.038-0.292-0.032-0.41-0.097c-0.103-0.057-0.124-0.116-0.13-0.16c-0.036-0.228,0.233-0.629,0.435-0.84
		c0.016-0.017,0.03-0.037,0.041-0.058l0.881-1.638l1.587-0.333c0.103-0.022,0.184-0.103,0.205-0.206
		c0.003-0.013,0.274-1.326,0.356-1.654c0.049-0.195,0.438-0.75,0.7-1.08c0.047-0.059,0.066-0.136,0.053-0.21l-0.243-1.413
		c-0.025-0.145-0.163-0.242-0.308-0.216c-0.005,0.001-0.011,0.002-0.016,0.003c-0.795,0.193-1.625,0.295-1.874,0.236
		c0.101-0.463,2.35-1.683,2.964-1.883c0.432,0.258,1.013,1.072,1.245,1.432l0.462,2.812c0.015,0.091,0.076,0.168,0.162,0.203
		l0.684,0.279l-1.426,1.09c-0.041,0.031-0.072,0.074-0.09,0.122l-0.59,1.657C-21.806,12.423-23.187,11.903-23.187,11.903z
		 M-21.418,13.503c-0.066-0.03-0.112-0.133-0.134-0.207l0.81-2.278l0.85-0.648c0.13,0.122,0.349,0.304,0.66,0.47l-0.813,0.573
		c-0.042,0.03-0.074,0.071-0.093,0.118l-0.776,1.934C-21.009,13.517-21.212,13.598-21.418,13.503z M-17.861,13.624l-2.248-0.739
		l0.435-1.083l0.91-0.64c0.032-0.024,0.059-0.055,0.077-0.091c0.3,0.096,0.648,0.161,1.046,0.161c0.018,0,0.037-0.022,0.056-0.023
		c0.722-0.01,1.228-0.098,1.524-0.248c1.14,0.465,1.538,0.913,1.57,1.764c0.059,1.54-1.267,2.077-1.323,2.099
		c-0.133,0.051-0.202,0.199-0.156,0.334l0.497,1.452l-1.304,1.802l-0.41-0.217l0.711-1.481c0.034-0.071,0.035-0.153,0.003-0.224
		l-0.38-0.842c-0.005-0.059-0.03-0.114-0.071-0.157l-0.778-1.724C-17.733,13.7-17.79,13.648-17.861,13.624z M-17.169,16.239
		l0.16,0.357l-0.648,1.353l-0.473-0.246L-17.169,16.239L-17.169,16.239z M-9.883,24.069h-22.672c0.15-0.215,0.335-0.488,0.542-0.796
		h8.757c0.147,0.009,0.273-0.103,0.282-0.249s-0.103-0.273-0.249-0.282c-0.011-0.001-0.022-0.001-0.033,0h-8.4l0.533-0.797h5.476
		c0.147,0.009,0.273-0.103,0.282-0.249s-0.103-0.273-0.249-0.282c-0.011-0.001-0.022-0.001-0.033,0h-5.123l0.353-0.531h1.849
		c0.147,0,0.266-0.119,0.266-0.266c0-0.147-0.119-0.266-0.266-0.266c0,0,0,0-0.001,0h-1.497l1.09-1.648l5.693,0.637l3.042,1.862
		c0.124,0.077,0.287,0.039,0.364-0.084c0.001-0.001,0.002-0.002,0.002-0.004c0.077-0.125,0.038-0.288-0.087-0.364
		c0,0-0.001,0-0.001-0.001l-3.093-1.893c-0.033-0.02-0.07-0.033-0.109-0.037l-5.828-0.652l-1.217-1.13l0.232-1.391
		c1.524,0.178,7.81,0.913,8.528,0.964c2.832,1.419,5.957,3.048,6.212,3.292c0.382,0.382,4.467,2.963,5.37,3.532L-9.883,24.069
		L-9.883,24.069z"/>
</g>
</svg>
