<svg xmlns="http://www.w3.org/2000/svg" width="30" height="24" viewBox="0 0 30 24">
    <path fill="#1A1A1A" fill-rule="nonzero" d="M28.755 22.696v-17.1h-.624a2.868 2.868 0 1 0-4.161 0h-.468v1.62a14.505 14.505 0 0 0-1.68-1.035V3.95h-.9v1.8c-.75-.336-1.527-.61-2.322-.818V3.63h-.9v1.1a14.211 14.211 0 0 0-2.325-.251V3.307h-.9V4.48c-.781.029-1.559.122-2.325.279V3.63h-.9V4.96c-.797.217-1.575.5-2.325.846V3.952h-.9V6.27c-.525.284-1.032.6-1.518.948v-1.62h-.636a2.868 2.868 0 1 0-4.161 0h-.465v17.1H0v.9h7.743v-.9H6.498v-2.97h17.004v2.97h-1.245v.9H30v-.9l-1.245-.003zM24.078 3.63a1.968 1.968 0 1 1 3.936 0 1.968 1.968 0 0 1-3.936 0zM20.922 6.76v12.066H18.6V5.875c.798.227 1.575.523 2.322.885zM17.7 5.656v13.17h-2.331V5.383a13.17 13.17 0 0 1 2.331.273zm-3.225-.27v13.44h-2.331V5.692a13.2 13.2 0 0 1 2.325-.306h.006zm-3.231.534v12.9H8.919v-12a14.4 14.4 0 0 1 2.325-.9zM1.821 3.63a1.968 1.968 0 1 1 3.936 0 1.968 1.968 0 0 1-3.936 0zm3.777 19.066H2.145v-16.2h1.2v3.9h.9v-3.9h1.359v16.2h-.006zm.9-14.34c.48-.382.987-.728 1.518-1.035v11.505H6.498V8.356zm15.324 10.47V7.225c.59.33 1.15.708 1.68 1.128v10.47l-1.68.003zm2.58 3.87v-16.2h1.2v3.9h.9v-3.9h1.359v16.2h-3.459z"/>
</svg>
