<svg xmlns="http://www.w3.org/2000/svg" width="30" height="18" viewBox="0 0 30 18">
    <path fill="#1A1A1A" fill-rule="nonzero" d="M27.975.716a2.993 2.993 0 0 0-3.207.605.776.776 0 1 0 1.082 1.112 1.433 1.433 0 0 1 1.524-.287c.521.222.858.73.858 1.296v10.7c0 .566-.3 1.11-.854 1.295-.555.186-1.01.033-1.528-.283-.03-.019-1.1-.74-3.206-2.167L15.433 8.15 5.178 1.27A2.957 2.957 0 0 0 .216 3.444v10.698a2.958 2.958 0 0 0 2.958 2.958c.774 0 1.505-.297 2.058-.836a.777.777 0 0 0-1.082-1.112 1.434 1.434 0 0 1-1.525.286 1.406 1.406 0 0 1-.858-1.296V3.445A1.406 1.406 0 0 1 4.15 2.433a.77.77 0 0 0 .108.088l10.31 6.916 7.2 4.831c1.904 1.29 2.865 1.935 2.883 1.936.96.598 1.685.897 2.172.897a2.957 2.957 0 0 0 2.96-2.96V3.444A2.956 2.956 0 0 0 27.975.716z"/>
</svg>
