<svg xmlns="http://www.w3.org/2000/svg" width="31" height="32" viewBox="0 0 31 32">
    <g fill="#1A1A1A" fill-rule="nonzero">
        <path d="M1.85 29.445V1.107a.85.85 0 1 0-1.7 0v28.338a.85.85 0 0 0 1.7 0z"/>
        <path d="M6.873 1.85l1.26.955a.85.85 0 0 0 .513.173h1.487a.85.85 0 0 0 .514-.173l1.259-.955h.915l1.259.955a.85.85 0 0 0 .514.173h1.486a.85.85 0 0 0 .514-.173l1.259-.955h.915l1.259.955a.85.85 0 0 0 .514.173h1.487a.85.85 0 0 0 .514-.173L23.8 1.85h.914l1.26.955a.85.85 0 0 0 .513.173h1.487a.85.85 0 0 0 .514-.173l1.487-1.127A.85.85 0 1 0 28.948.322l-1.259.955h-.915L25.515.322a.85.85 0 0 0-.514-.173h-1.487A.85.85 0 0 0 23 .323l-1.259.955h-.914l-1.26-.955a.85.85 0 0 0-.513-.173h-1.487a.85.85 0 0 0-.514.173l-1.259.955h-.914L13.62.322a.85.85 0 0 0-.513-.173H11.62a.85.85 0 0 0-.514.173l-1.259.955h-.915L7.673.322A.85.85 0 0 0 7.16.15H5.672a.85.85 0 0 0-.514.173L3.9 1.277h-.914L1.725.322A.85.85 0 0 0 .699 1.678l1.487 1.127a.85.85 0 0 0 .514.173h1.487a.85.85 0 0 0 .514-.173l1.258-.955h.915zM5.958 30.411h.915l1.26.955a.85.85 0 0 0 .513.173h1.487a.85.85 0 0 0 .514-.173l1.259-.955h.915l1.259.955a.85.85 0 0 0 .514.173h1.486a.85.85 0 0 0 .514-.173l1.259-.955h.915l1.259.955a.85.85 0 0 0 .514.173h1.487a.85.85 0 0 0 .514-.173l1.259-.955h.914l1.26.955a.85.85 0 0 0 .513.173h1.487a.85.85 0 0 0 .514-.173l1.487-1.127a.85.85 0 0 0-1.028-1.356l-1.259.955h-.915l-1.259-.955a.85.85 0 0 0-.514-.173h-1.487a.85.85 0 0 0-.514.173l-1.259.955h-.914l-1.26-.955a.85.85 0 0 0-.513-.173h-1.487a.85.85 0 0 0-.514.173l-1.259.955h-.914l-1.26-.955a.85.85 0 0 0-.513-.173H11.62a.85.85 0 0 0-.514.173l-1.259.955h-.915l-1.259-.955a.85.85 0 0 0-.514-.173H5.672a.85.85 0 0 0-.514.173l-1.259.955h-.914l-1.26-.955A.85.85 0 0 0 .699 30.24l1.487 1.127a.85.85 0 0 0 .514.173h1.487a.85.85 0 0 0 .514-.173l1.258-.955z"/>
        <path d="M5.485 1.107v28.337a.85.85 0 1 0 1.701 0V1.107a.85.85 0 0 0-1.7 0zM13.133 29.445V1.107a.85.85 0 1 0-1.7 0v28.338a.85.85 0 0 0 1.7 0zM17.379 1.107v28.337a.85.85 0 1 0 1.7 0V1.107a.85.85 0 1 0-1.7 0zM25.027 29.445V1.107a.85.85 0 0 0-1.701 0v28.338a.85.85 0 0 0 1.7 0zM28.617 1.107v28.337a.85.85 0 1 0 1.7 0V1.107a.85.85 0 1 0-1.7 0z"/>
    </g>
</svg>
