<svg xmlns="http://www.w3.org/2000/svg" width="30" height="30" viewBox="0 0 30 30">
    <path fill="#1A1A1A" fill-rule="nonzero" d="M30 3.69c0-.18-.15-.33-.33-.36L2.55 0c-.12 0-.21.03-.3.09s-.12.18-.12.27v2.37L.06 5.97V6c-.03.03-.03.06-.03.12v8.34c0 .18.15.33.33.36l1.56.18-1.83 2.85v.03c-.03.03-.03.06-.03.12C0 18 0 18 0 18.03v8.28c0 .18.15.33.33.36L27.45 30h.03c.09 0 .18-.03.24-.09.09-.06.12-.18.12-.27v-8.16l2.07-3.21v-.03c.03-.03.03-.06.03-.12V15.57c0-.18-.15-.33-.33-.36l-1.8-.21V9.6l2.07-3.21v-.03c.03-.03.03-.06.03-.12V3.69H30zM2.85.78l26.4 3.24v1.74L7.8 3.15l-4.98-.6V.78h.03zM.72 6.57l21.45 2.61 4.98.6v7.56L.72 14.1V6.57zm1.95 8.55l24.66 3.03c.03.03.09.03.12.03l1.53.18-1.68 2.61-11.79-1.44L.99 17.76l1.68-2.64zm24.48 14.1L.75 25.98v-7.53l21.45 2.61 4.98.6v7.56h-.03zm2.13-13.32v1.74l-1.38-.18v-1.74l1.38.18zm-1.95-6.81L15.54 7.65.99 5.85l1.68-2.64 11.79 1.44 14.55 1.77-1.68 2.67z"/>
</svg>
