<svg xmlns="http://www.w3.org/2000/svg" width="30" height="22" viewBox="0 0 30 22">
    <path fill="#1A1A1A" fill-rule="nonzero" d="M29.546 7.617l-.153-.358-.409.05c-1.636.308-3.22.41-4.038.461 0-2.556-.665-4.55-1.943-5.93C21.368.102 19.17 0 18.556 0h-.204L5.879 4.192c-.972.409-1.79.818-2.454 1.329C1.073 7.105 0 9.406 0 12.728c0 4.908 4.243 8.742 9.661 8.742 4.039 0 5.163-.205 6.544-.46.408-.051.869-.154 1.43-.256h.103l12.217-8.128v-.255c.205-3.374-.357-4.703-.409-4.754zm-.97.818L16.97 16c-1.022.256-3.271.511-5.01.716.359-.103.665-.256.87-.307 4.09-1.891 10.94-7.003 11.706-7.617.358 0 2.096-.05 4.038-.357zM18.504 1.022c.358 0 2.351.051 3.783 1.534 1.175 1.227 1.738 3.17 1.635 5.725v.358c-1.533 1.176-7.616 5.572-11.297 7.31-.102.051-.306.102-.51.204.101-.102.152-.153.204-.255 1.993-2.607 1.993-5.572.05-8.026-1.226-1.584-3.322-2.76-5.52-2.914l11.655-3.936zM16.05 19.987c-1.278.256-2.402.41-6.338.41-4.908.05-8.69-3.375-8.69-7.669 0-2.964.92-4.958 2.964-6.39.41-.255.87-.51 1.33-.766 2.606-.511 5.213.767 6.645 2.607 1.789 2.25 1.738 5.01-.051 7.412-.87 1.125-2.71 1.636-4.55 1.227-1.738-.358-4.192-2.198-3.527-5.572A3.955 3.955 0 0 1 5.623 8.64c.562-.358 1.482-.665 2.71-.256 1.737.563 2.555 2.045 2.146 3.885-.153.87-.715 1.432-1.482 1.534-.716.102-1.534-.153-1.84-.716-.307-.51-.205-1.124.357-1.789.103-.102.052-.255-.05-.358-.103-.102-.256-.05-.359.051-.869 1.125-.613 1.994-.357 2.403.409.716 1.431 1.125 2.351.971.971-.153 1.687-.869 1.891-1.942.512-2.505-.97-3.987-2.504-4.499-1.074-.357-2.147-.255-3.119.307-1.022.613-1.789 1.687-2.044 2.965-.716 3.732 2.044 5.776 3.936 6.185.409.103.869.154 1.278.154.255 0 .511 0 .715-.051.052.05.103.05.154.05.204 0 5.316-.46 7.36-.92l.41 3.221c-.41.051-.767.102-1.125.153zm12.882-7.923l-11.195 7.463-.358-3.17 11.45-7.462c.103.613.205 1.687.103 3.169z"/>
</svg>
