<svg xmlns="http://www.w3.org/2000/svg" width="17" height="31" viewBox="0 0 17 31">
    <path fill="#1A1A1A" fill-rule="nonzero" d="M16.237 3.09l-1.48-.634c-.158-.053-.317-.053-.422 0l-.793.422V1.61c0-.211-.106-.37-.317-.475L11.693.448a.733.733 0 0 0-.476 0L.437 5.89a.555.555 0 0 0-.263.476v20.026c0 .211.158.423.37.476l10.726 3.54h.317l1.638-.528c.211-.053.37-.265.37-.529v-.317l.845.264a.337.337 0 0 0 .317 0l1.427-.317c.212-.053.37-.264.37-.528V3.565c0-.211-.158-.37-.317-.475zm-5.125 26.208l-9.934-3.276V6.682l9.934-5.02v27.636zm1.426-.898s-.053 0 0 0v.687l-.845.264V1.557l.792.37V28.4h.053zm1.744-.106l-1.11-.37h-.158V4.2c.053 0 .158 0 .211-.053l1.004-.475v24.623h.053zm1.215-.211l-.687.211V3.618l.687.317v24.148z"/>
</svg>
