<svg xmlns="http://www.w3.org/2000/svg" width="27" height="30" viewBox="0 0 27 30">
    <path fill="#1A1A1A" fill-rule="nonzero" d="M24.724 10.393l2.317-6.66h-2.317V.174H2.485v15.133L.168 21.968h2.317v6.375h-.74v1.483h23.72v-1.483h-.741v-17.95zm.648-5.474l-.648 1.863V4.92h.648zM9.54 20.21l-.195.571H3.968v-6.126l3.387-9.737H23.24v6.126l-3.387 9.737h-7.359l.196-.57H9.54v-.001zM3.968 1.657h19.273v2.076H6.511l-2.543 7.312V1.657zm-2.13 19.125l.647-1.864v1.864h-.648zm2.13 7.561v-6.375h16.73l2.543-7.312v13.687H3.968z"/>
</svg>
