<svg xmlns="http://www.w3.org/2000/svg" width="32" height="21" viewBox="0 0 32 21">
    <path fill="none" fill-rule="nonzero" stroke="#1A1A1A" d="M26.984 2.683c.115-.417.423-.84.808-1.049 1.16.006 2.43.015 3.19.03.233.006.302-.22-.034-.223-5.527-.05-28.808 0-28.808 0-.368 0-.693.278-.793.631l-.08.314a2.442 2.442 0 0 0 .313 1.99 2.43 2.43 0 0 0 1.7 1.072l4.217.575-.027 6.067a8.142 8.142 0 0 0 2.383 5.807 8.132 8.132 0 0 0 5.795 2.413l6.805.011a.094.094 0 0 0 .094-.094.093.093 0 0 0-.094-.093l-6.805-.012a7.938 7.938 0 0 1-5.661-2.358c-1.51-1.519-2.383-3.534-2.376-5.674l-.005-9.865v.094h.253c.013 0-.026-.061-.024-.063.004.013-.041-.024-.041.017v.076c0 2.046 1.204 4.262 3.852 4.29.045.002.094.032.094.087v4.383c0 2.648 2.25 4.93 4.898 4.93h5.815a.093.093 0 0 0 .094-.094.093.093 0 0 0-.094-.094h-5.815c-2.545 0-4.71-2.198-4.71-4.742V6.726c0-.032.042-.039.032-.065l19.08 2.612h.011c.047 0 .087-.058.094-.105.008-.05-.03-.108-.08-.116l-1.068-.16a4.561 4.561 0 0 1-2.586-1.89 4.56 4.56 0 0 1-.59-3.725l.163-.594zM11.94 1.755h.272c-.194.188-.34.384-.408.629l-.114.385c-.26.94-.1 1.93.436 2.743.212.324.477.592.78.82a3.09 3.09 0 0 1-1.573-3.577l.112-.344c.072-.261.258-.468.495-.656zm-5.485 0h.203c-.152.188-.267.315-.32.51l-.097.32a2.82 2.82 0 0 0 .37 2.32c.153.233.34.425.551.598a2.591 2.591 0 0 1-1.193-2.927l.094-.28c.058-.208.204-.353.392-.541zm-3.15 3.51A2.24 2.24 0 0 1 1.447 2.45l.082-.264c.076-.272.327-.431.611-.431h.998c-.122.188-.218.264-.263.43l-.085.274c-.193.7-.075 1.43.324 2.033.21.32.488.625.808.866l-.617-.093zm1.072.145c-.446-.227-.835-.631-1.102-1.037a2.327 2.327 0 0 1-.302-1.895l.084-.243c.051-.182.175-.292.337-.48h.167c-.13.188-.227.275-.276.446l-.087.286c-.199.718-.077 1.471.333 2.093.244.369.59.654.974.855l-.128-.025zm.996.105a2.4 2.4 0 0 1-1.992-3.01l.086-.253c.053-.19.184-.309.352-.497h2.368c-.143.188-.252.302-.305.491l-.094.31a2.732 2.732 0 0 0 .36 2.252c.283.43.676.759 1.132.973l-1.907-.266zm5.116.733c-1.68-.573-2.508-2.289-2.508-3.9v-.075c0-.086.094-.142-.122-.142h-.19c-.035 0-.086-.06-.124-.02-.039.043-.037.064-.035.106.002.01.002.008.002.021l-.014 3.285a2.636 2.636 0 0 1-.73-.733 2.675 2.675 0 0 1-.346-2.184l.097-.289c.06-.22.215-.374.41-.562h4.725c-.186.188-.325.371-.391.606l-.111.373a3.243 3.243 0 0 0 .423 2.662c.357.541.84.947 1.424 1.197l-2.51-.345zm3.817.51a3.188 3.188 0 0 1-2.436-3.97l.116-.354c.076-.272.27-.491.515-.679h5.748a1.434 1.434 0 0 0-.493.734l-.131.444a3.803 3.803 0 0 0 .496 3.119 4.684 4.684 0 0 0 1.472 1.428l-5.287-.722zm5.865.79c-.77-.305-1.44-.928-1.892-1.615a3.64 3.64 0 0 1-.472-2.981l.132-.414c.088-.322.32-.595.612-.783h.356c-.245.188-.43.461-.514.76l-.135.46a3.909 3.909 0 0 0 .511 3.214 3.935 3.935 0 0 0 1.634 1.4l-.232-.04zm1.391.18a3.767 3.767 0 0 1-3.123-4.735l.135-.427c.092-.335.334-.623.64-.811h5.968s.625-.063 1.485-.061c-.293.246-.532.582-.63.938l-.158.557a4.588 4.588 0 0 0 2.785 5.508l-7.102-.97zm5.078-4.504a4.74 4.74 0 0 0 .613 3.874c.38.575.876 1.052 1.447 1.408a4.41 4.41 0 0 1-2.64-5.281l.157-.513c.111-.404.408-.769.782-.957h.457c-.312.188-.549.563-.652.939l-.164.53z"/>
</svg>
