<?xml version="1.0" encoding="utf-8"?>
<!-- Generator: Adobe Illustrator 21.1.0, SVG Export Plug-In . SVG Version: 6.00 Build 0)  -->
<svg version="1.1" id="Слой_1" xmlns="http://www.w3.org/2000/svg" xmlns:xlink="http://www.w3.org/1999/xlink" x="0px" y="0px"
	 viewBox="0 0 320 40" style="enable-background:new 0 0 320 40;" xml:space="preserve">
<style type="text/css">
	.st0{fill:none;stroke:#6BB0ED;}
</style>
<title>Group 8</title>
<desc>Created with Sketch.</desc>
<g id="Adaptives">
	<g id="Group-Copy" transform="translate(1.000000, 0.000000)">
		<g id="Buttons-_x2F_-Make-Order-_x2F_-Normal">
			<g id="Group-8">
				<path id="Path-2" class="st0" d="M-11,40L28.3,0"/>
				<path id="Path-2-Copy-34" class="st0" d="M-21,40L18.3,0"/>
				<path id="Path-2-Copy-35" class="st0" d="M-31,40L8.3,0"/>
				<path id="Path-2-Copy-36" class="st0" d="M-41,40L-1.7,0"/>
				<path id="Path-2-Copy" class="st0" d="M-1,40L38.3,0"/>
				<path id="Path-2-Copy-2" class="st0" d="M9,40L48.3,0"/>
				<path id="Path-2-Copy-3" class="st0" d="M19,40L58.3,0"/>
				<path id="Path-2-Copy-4" class="st0" d="M29,40L68.3,0"/>
				<path id="Path-2-Copy-5" class="st0" d="M39,40L78.3,0"/>
				<path id="Path-2-Copy-6" class="st0" d="M49,40L88.3,0"/>
				<path id="Path-2-Copy-7" class="st0" d="M59,40L98.3,0"/>
				<path id="Path-2-Copy-8" class="st0" d="M69,40l39.3-40"/>
				<path id="Path-2-Copy-9" class="st0" d="M79,40l39.3-40"/>
				<path id="Path-2-Copy-10" class="st0" d="M89,40l39.3-40"/>
				<path id="Path-2-Copy-11" class="st0" d="M99,40l39.3-40"/>
				<path id="Path-2-Copy-23" class="st0" d="M109,40l39.3-40"/>
				<path id="Path-2-Copy-22" class="st0" d="M119,40l39.3-40"/>
				<path id="Path-2-Copy-21" class="st0" d="M129,40l39.3-40"/>
				<path id="Path-2-Copy-20" class="st0" d="M139,40l39.3-40"/>
				<path id="Path-2-Copy-19" class="st0" d="M149,40l39.3-40"/>
				<path id="Path-2-Copy-18" class="st0" d="M159,40l39.3-40"/>
				<path id="Path-2-Copy-17" class="st0" d="M169,40l39.3-40"/>
				<path id="Path-2-Copy-16" class="st0" d="M179,40l39.3-40"/>
				<path id="Path-2-Copy-15" class="st0" d="M189,40l39.3-40"/>
				<path id="Path-2-Copy-14" class="st0" d="M199,40l39.3-40"/>
				<path id="Path-2-Copy-13" class="st0" d="M209,40l39.3-40"/>
				<path id="Path-2-Copy-12" class="st0" d="M219,40l39.3-40"/>
				<path id="Path-2-Copy-28" class="st0" d="M229,40l39.3-40"/>
				<path id="Path-2-Copy-27" class="st0" d="M239,40l39.3-40"/>
				<path id="Path-2-Copy-26" class="st0" d="M249,40l39.3-40"/>
				<path id="Path-2-Copy-25" class="st0" d="M259,40l39.3-40"/>
				<path id="Path-2-Copy-24" class="st0" d="M269,40l39.3-40"/>
				<path id="Path-2-Copy-33" class="st0" d="M279,40l39.3-40"/>
				<path id="Path-2-Copy-32" class="st0" d="M289,40l39.3-40"/>
				<path id="Path-2-Copy-31" class="st0" d="M299,40l39.3-40"/>
				<path id="Path-2-Copy-30" class="st0" d="M309,40l39.3-40"/>
				<path id="Path-2-Copy-29" class="st0" d="M319,40l39.3-40"/>
			</g>
		</g>
	</g>
</g>
</svg>
