<svg xmlns="http://www.w3.org/2000/svg" width="24" height="24" viewBox="0 0 24 24">
    <path d="M17.531 14.625a9.488 9.488 0 0 0 1.488-5.106C19.019 4.263 14.763 0 9.513 0 4.255 0 0 4.263 0 9.519s4.256 9.519 9.506 9.519a9.486 9.486 0 0 0 5.169-1.526l.431-.3L21.894 24 24 21.856l-6.781-6.787.312-.444zM14.838 4.2a7.465 7.465 0 0 1 2.2 5.312 7.465 7.465 0 0 1-2.2 5.313 7.465 7.465 0 0 1-5.313 2.2 7.465 7.465 0 0 1-5.313-2.2 7.465 7.465 0 0 1-2.2-5.313c0-2.006.782-3.893 2.2-5.312A7.465 7.465 0 0 1 9.526 2c2.006 0 3.894.781 5.313 2.2z"/>
</svg>
