<?xml version="1.0" encoding="UTF-8"?>
<svg width="37px" height="32px" viewBox="0 0 37 32" version="1.1" xmlns="http://www.w3.org/2000/svg" xmlns:xlink="http://www.w3.org/1999/xlink">
    <path d="M15.0923077,19.9846154 C14.3222404,19.9846154 13.6923077,20.6145481 13.6923077,21.384649 C13.6923077,22.1547163 14.3222404,22.784649 15.0923077,22.784649 C15.862375,22.784649 16.4923413,22.1547163 16.4923413,21.384649 C16.4923077,20.6145144 15.8623413,19.9846154 15.0923077,19.9846154 Z M11,9 L11,10.4 L12.4,10.4 L14.920101,15.5046827 L13.8664663,17.2194808 C13.7615337,17.3944808 13.6914663,17.6395481 13.6914663,17.884649 C13.6914663,18.8219087 14.3317308,19.284649 15.2,19.284649 L23.3846154,19.284649 L23.3846154,17.9384952 L15.371399,17.9384952 C15.2664663,17.9384952 15.196399,17.8684279 15.196399,17.7634952 C15.196399,17.7286298 15.2706731,17.5884952 15.2706731,17.5884952 L15.9700673,16.484649 L21.1848654,16.484649 C21.709899,16.484649 22.1651346,16.20475 22.4098654,15.7497837 L24.9299327,11.4151683 C24.9715625,11.3323462 25,11.2049663 25,11.0652019 C25,10.68 24.6848654,10.4000337 24.3,10.4000337 L13.9401346,10.4000337 L13.275,9 L11,9 Z M21.9845817,19.9846154 C21.2145144,19.9846154 20.5845817,20.6145481 20.5845817,21.384649 C20.5845817,22.1547163 21.2145144,22.784649 21.9845817,22.784649 C22.754649,22.784649 23.3846154,22.1546827 23.3846154,21.3846154 C23.3846154,20.6145144 22.754649,19.9846154 21.9845817,19.9846154 Z"></path>
</svg>
