<?xml version="1.0" encoding="utf-8"?>
<!-- Generator: Adobe Illustrator 17.0.0, SVG Export Plug-In . SVG Version: 6.00 Build 0)  -->
<!DOCTYPE svg PUBLIC "-//W3C//DTD SVG 1.1//EN" "http://www.w3.org/Graphics/SVG/1.1/DTD/svg11.dtd">
<svg version="1.1" id="Слой_1" xmlns="http://www.w3.org/2000/svg" xmlns:xlink="http://www.w3.org/1999/xlink" x="0px" y="0px"
	 width="212px" height="28px" viewBox="0 0 212 28" enable-background="new 0 0 212 28" xml:space="preserve">
<g>
	<path d="M96,25L72.466,1H53.089v6.484H70.32l10.816,11.03H58.711v-2.622h3.363l6.384-6.484H42.937V1H23.533L0,25h42.937v-6.52
		l-28.074,0.035L25.68,7.485h11.61v1.923h-3.472l-6.353,6.484h17.882v9.04h5.647v-9.04h2.07V25H96z"/>
	<g>
		<path fill="#1A1A1A" stroke="#1A1A1A" stroke-width="2" d="M101.472,5.441l0.672-0.64c0.224-0.225,0.672-0.416,0.992-0.416h1.824
			c0.32,0,0.768,0.191,0.992,0.416l1.184,1.151c0.225,0.225,0.576,0.225,0.801,0l1.184-1.151c0.225-0.225,0.225-0.608,0-0.832
			l-1.984-1.952c-0.256-0.224-0.704-0.416-1.023-0.416h-3.968c-0.32,0-0.768,0.16-1.024,0.384l-2.432,2.208
			c-0.256,0.192-0.448,0.64-0.448,0.96v15.263c0,0.32,0.192,0.769,0.448,0.96l2.464,2.24c0.224,0.224,0.704,0.384,1.024,0.384h3.936
			c0.32,0,0.768-0.192,1.023-0.416l1.984-1.952c0.225-0.224,0.225-0.575,0-0.8l-1.184-1.184c-0.225-0.192-0.576-0.192-0.801,0
			l-1.184,1.184c-0.224,0.225-0.672,0.384-0.992,0.384h-1.824c-0.32,0-0.768-0.191-0.992-0.416l-0.672-0.672
			c-0.224-0.224-0.416-0.672-0.416-0.991V6.434C101.056,6.113,101.248,5.665,101.472,5.441z"/>
		<path fill="#1A1A1A" stroke="#1A1A1A" stroke-width="2" d="M122.783,1.602h-10.111c-0.32,0-0.576,0.256-0.576,0.576V3.81
			c0,0.32,0.256,0.576,0.576,0.576h3.072c0.32,0,0.576,0.256,0.576,0.575v18.463c0,0.32,0.256,0.576,0.575,0.576h1.664
			c0.319,0,0.576-0.256,0.576-0.576V4.961c0-0.319,0.256-0.575,0.575-0.575h3.072c0.32,0,0.576-0.256,0.576-0.576V2.178
			C123.359,1.857,123.104,1.602,122.783,1.602z"/>
		<path fill="#1A1A1A" stroke="#1A1A1A" stroke-width="2" d="M134.527,1.602h-4.48c-0.319,0-0.64,0.256-0.672,0.576l-3.52,21.246
			c-0.031,0.32,0.16,0.576,0.48,0.576h1.695c0.32,0,0.641-0.256,0.672-0.576l1.217-7.264c0.031-0.319,0.352-0.575,0.672-0.575h3.391
			c0.32,0,0.608,0.256,0.672,0.575l1.185,7.264c0.063,0.32,0.353,0.576,0.672,0.576h1.696c0.32,0,0.543-0.256,0.479-0.576
			l-3.487-21.246C135.135,1.857,134.848,1.602,134.527,1.602z M133.503,12.801h-2.464c-0.32,0-0.544-0.256-0.48-0.576l1.185-7.264
			c0.063-0.287,0.288-0.575,0.544-0.575c0.225,0,0.48,0.288,0.512,0.575l1.217,7.264C134.047,12.545,133.823,12.801,133.503,12.801z
			"/>
		<path fill="#1A1A1A" stroke="#1A1A1A" stroke-width="2" d="M153.471,1.602h-6.623c-0.32,0-0.769,0.192-0.992,0.416l-2.24,2.399
			c-0.191,0.225-0.384,0.673-0.384,0.992V19.84c0,0.32-0.192,0.736-0.416,0.96c-0.416,0.416-0.8,0.832-1.216,1.248
			c-0.225,0.225-0.225,0.608,0,0.832l1.152,1.185c0.223,0.224,0.607,0.224,0.831,0c0.704-0.736,1.28-1.28,2.048-1.984
			c0.225-0.192,0.416-0.64,0.416-0.96V6.369c0-0.32,0.192-0.735,0.416-0.96l0.704-0.672c0.224-0.192,0.672-0.384,0.991-0.384h2.496
			c0.32,0,0.608,0.256,0.608,0.576c0,6.175,0,12.318,0,18.494c0,0.32,0.256,0.576,0.576,0.576h1.632c0.32,0,0.607-0.256,0.607-0.576
			c0-7.071,0-14.175,0-21.246C154.078,1.857,153.791,1.602,153.471,1.602z"/>
		<path fill="#1A1A1A" stroke="#1A1A1A" stroke-width="2" d="M168.286,11.233c-0.224-0.225-0.672-0.416-0.991-0.416h-4.896v-8.64
			c0-0.32-0.256-0.576-0.576-0.576h-1.664c-0.319,0-0.575,0.256-0.575,0.576v21.246c0,0.353,0.256,0.576,0.608,0.576
			c2.271,0,4.543,0,6.814,0c0.32,0,0.769-0.16,1.024-0.384l2.432-2.176c0.257-0.256,0.448-0.384,0.448-0.928v-5.888
			c0-0.32-0.191-0.769-0.416-0.992L168.286,11.233z M168.094,19.232c0,0.32-0.191,0.736-0.416,0.96l-0.672,0.672
			c-0.224,0.224-0.672,0.416-0.991,0.416h-3.04c-0.32,0-0.576-0.256-0.576-0.544v-6.624c0-0.287,0.256-0.544,0.576-0.544h3.008
			c0.32,0,0.768,0.16,0.992,0.385l0.703,0.672c0.225,0.191,0.416,0.64,0.416,0.96V19.232z"/>
		<path fill="#1A1A1A" stroke="#1A1A1A" stroke-width="2" d="M192.094,1.602h-10.111c-0.32,0-0.576,0.256-0.576,0.576V3.81
			c0,0.32,0.256,0.576,0.576,0.576h3.072c0.32,0,0.576,0.256,0.576,0.575v18.463c0,0.32,0.256,0.576,0.575,0.576h1.664
			c0.319,0,0.576-0.256,0.576-0.576V4.961c0-0.319,0.256-0.575,0.575-0.575h3.072c0.32,0,0.576-0.256,0.576-0.576V2.178
			C192.67,1.857,192.414,1.602,192.094,1.602z"/>
		<path fill="#1A1A1A" stroke="#1A1A1A" stroke-width="2" d="M210.167,21.473h-1.504V2.178c0-0.32-0.288-0.576-0.608-0.576h-6.879
			c-0.32,0-0.769,0.192-0.992,0.416l-2.208,2.399c-0.224,0.225-0.416,0.673-0.416,0.992v16.063h-1.535
			c-0.288,0-0.576,0.287-0.576,0.607v4.288c0,0.319,0.288,0.575,0.576,0.575h1.535c0.32,0,0.576-0.256,0.576-0.575v-1.76
			c0-0.32,0.256-0.608,0.576-0.608c3.008,0,5.76,0,8.768,0c0.319,0,0.575,0.288,0.575,0.608v1.76c0,0.319,0.257,0.575,0.576,0.575
			h1.536c0.32,0,0.576-0.256,0.576-0.575V22.08C210.743,21.76,210.487,21.473,210.167,21.473z M205.848,21.473h-5.472V6.369
			c0-0.32,0.191-0.735,0.416-0.96l0.703-0.672c0.225-0.192,0.673-0.384,0.992-0.384h2.752c0.32,0,0.608,0.256,0.608,0.576V21.473z"
			/>
	</g>
</g>
</svg>
