<?xml version="1.0" encoding="UTF-8"?>
<svg width="88px" height="29px" viewBox="0 0 88 29" version="1.1" xmlns="http://www.w3.org/2000/svg" xmlns:xlink="http://www.w3.org/1999/xlink">
    <!-- Generator: Sketch 48.1 (47250) - http://www.bohemiancoding.com/sketch -->
    <title>Blocks / Global / Logotype Mobile</title>
    <desc>Created with Sketch.</desc>
    <defs></defs>
    <g id="Symbols" stroke="none" stroke-width="1" fill="none" fill-rule="evenodd">
        <g id="Blocks-/-Global-/-Logotype-Mobile" fill="#1A1A1A">
            <g id="Logotype">
                <path d="M7.464,20.624 L8.352,19.736 C8.52,19.592 8.784,19.592 8.952,19.736 L9.84,20.624 C10.008,20.792 10.008,21.056 9.84,21.224 L8.352,22.688 C8.16,22.856 7.824,23 7.584,23 L4.632,23 C4.392,23 4.032,22.88 3.864,22.712 L2.016,21.032 C1.824,20.888 1.68,20.552 1.68,20.312 L1.68,8.864 C1.68,8.624 1.824,8.288 2.016,8.144 L3.84,6.488 C4.032,6.32 4.368,6.2 4.608,6.2 L7.584,6.2 C7.824,6.2 8.16,6.344 8.352,6.512 L9.84,7.976 C10.008,8.144 10.008,8.432 9.84,8.6 L8.952,9.464 C8.784,9.632 8.52,9.632 8.352,9.464 L7.464,8.6 C7.296,8.432 6.96,8.288 6.72,8.288 L5.352,8.288 C5.112,8.288 4.776,8.432 4.608,8.6 L4.104,9.08 C3.936,9.248 3.792,9.584 3.792,9.824 L3.792,19.352 C3.792,19.592 3.936,19.928 4.104,20.096 L4.608,20.6 C4.776,20.768 5.112,20.912 5.352,20.912 L6.72,20.912 C6.96,20.912 7.296,20.792 7.464,20.624 Z M12.078,7.856 L12.078,6.632 C12.078,6.392 12.27,6.2 12.51,6.2 L20.094,6.2 C20.334,6.2 20.526,6.392 20.526,6.632 L20.526,7.856 C20.526,8.096 20.334,8.288 20.094,8.288 L17.79,8.288 C17.55,8.288 17.358,8.48 17.358,8.72 L17.358,22.568 C17.358,22.808 17.166,23 16.926,23 L15.678,23 C15.438,23 15.246,22.808 15.246,22.568 L15.246,8.72 C15.246,8.48 15.054,8.288 14.814,8.288 L12.51,8.288 C12.27,8.288 12.078,8.096 12.078,7.856 Z M29.46,6.632 L32.076,22.568 C32.124,22.808 31.956,23 31.716,23 L30.444,23 C30.204,23 29.988,22.808 29.94,22.568 L29.052,17.12 C29.004,16.88 28.788,16.688 28.548,16.688 L26.004,16.688 C25.764,16.688 25.524,16.88 25.5,17.12 L24.588,22.568 C24.564,22.808 24.324,23 24.084,23 L22.812,23 C22.572,23 22.428,22.808 22.452,22.568 L25.092,6.632 C25.116,6.392 25.356,6.2 25.596,6.2 L28.956,6.2 C29.196,6.2 29.412,6.392 29.46,6.632 Z M26.34,14.6 L28.188,14.6 C28.428,14.6 28.596,14.408 28.572,14.168 L27.66,8.72 C27.636,8.504 27.444,8.288 27.276,8.288 C27.084,8.288 26.916,8.504 26.868,8.72 L25.98,14.168 C25.932,14.408 26.1,14.6 26.34,14.6 Z M41.946,23 C41.706,23 41.514,22.808 41.514,22.568 L41.514,8.696 C41.514,8.456 41.298,8.264 41.058,8.264 L39.186,8.264 C38.946,8.264 38.61,8.408 38.442,8.552 L37.914,9.056 C37.746,9.224 37.602,9.536 37.602,9.776 L37.602,20.84 C37.602,21.08 37.458,21.416 37.29,21.56 C36.714,22.088 36.282,22.496 35.754,23.048 C35.586,23.216 35.298,23.216 35.13,23.048 L34.266,22.16 C34.098,21.992 34.098,21.704 34.266,21.536 C34.578,21.224 34.866,20.912 35.178,20.6 C35.346,20.432 35.49,20.12 35.49,19.88 L35.49,9.056 C35.49,8.816 35.634,8.48 35.778,8.312 L37.458,6.512 C37.626,6.344 37.962,6.2 38.202,6.2 L43.17,6.2 C43.41,6.2 43.626,6.392 43.626,6.632 L43.626,22.568 C43.626,22.808 43.41,23 43.17,23 L41.946,23 Z M53.328,23 L48.216,23 C47.952,23 47.76,22.832 47.76,22.568 L47.76,6.632 C47.76,6.392 47.952,6.2 48.192,6.2 L49.44,6.2 C49.68,6.2 49.872,6.392 49.872,6.632 L49.872,13.112 L53.544,13.112 C53.784,13.112 54.12,13.256 54.288,13.424 L55.944,15.224 C56.112,15.392 56.256,15.728 56.256,15.968 L56.256,20.384 C56.256,20.792 56.112,20.888 55.92,21.08 L54.096,22.712 C53.904,22.88 53.568,23 53.328,23 Z M49.872,20.552 C49.872,20.768 50.064,20.96 50.304,20.96 L52.584,20.96 C52.824,20.96 53.16,20.816 53.328,20.648 L53.832,20.144 C54,19.976 54.144,19.664 54.144,19.424 L54.144,16.688 C54.144,16.448 54,16.112 53.832,15.968 L53.304,15.464 C53.136,15.296 52.8,15.176 52.56,15.176 L50.304,15.176 C50.064,15.176 49.872,15.368 49.872,15.584 L49.872,20.552 Z M64.14,7.856 L64.14,6.632 C64.14,6.392 64.332,6.2 64.572,6.2 L72.156,6.2 C72.396,6.2 72.588,6.392 72.588,6.632 L72.588,7.856 C72.588,8.096 72.396,8.288 72.156,8.288 L69.852,8.288 C69.612,8.288 69.42,8.48 69.42,8.72 L69.42,22.568 C69.42,22.808 69.228,23 68.988,23 L67.74,23 C67.5,23 67.308,22.808 67.308,22.568 L67.308,8.72 C67.308,8.48 67.116,8.288 66.876,8.288 L64.572,8.288 C64.332,8.288 64.14,8.096 64.14,7.856 Z M76.218,21.104 L76.218,9.056 C76.218,8.816 76.362,8.48 76.53,8.312 L78.186,6.512 C78.354,6.344 78.69,6.2 78.93,6.2 L84.09,6.2 C84.33,6.2 84.546,6.392 84.546,6.632 L84.546,21.104 L85.674,21.104 C85.914,21.104 86.106,21.32 86.106,21.56 L86.106,24.776 C86.106,25.016 85.914,25.208 85.674,25.208 L84.522,25.208 C84.282,25.208 84.09,25.016 84.09,24.776 L84.09,23.456 C84.09,23.216 83.898,23 83.658,23 L77.082,23 C76.842,23 76.65,23.216 76.65,23.456 L76.65,24.776 C76.65,25.016 76.458,25.208 76.218,25.208 L75.066,25.208 C74.85,25.208 74.634,25.016 74.634,24.776 L74.634,21.56 C74.634,21.32 74.85,21.104 75.066,21.104 L76.218,21.104 Z M82.434,21.104 L82.434,8.696 C82.434,8.456 82.218,8.264 81.978,8.264 L79.914,8.264 C79.674,8.264 79.338,8.408 79.17,8.552 L78.642,9.056 C78.474,9.224 78.33,9.536 78.33,9.776 L78.33,21.104 L82.434,21.104 Z" id="Сталь-ТД"></path>
            </g>
        </g>
    </g>
</svg>