<svg xmlns="http://www.w3.org/2000/svg" width="60" height="43" viewBox="0 0 60 43">
    <path fill="#EFF6FD" fill-opacity=".6" fill-rule="evenodd" d="M59.4 9.167s-.587-4.164-2.385-5.997C54.733.763 52.175.751 51.004.612 42.608 0 30.014 0 30.014 0h-.027S17.392 0 8.997.612c-1.174.14-3.73.15-6.014 2.558C1.185 5.004.6 9.167.6 9.167s-.6 4.891-.6 9.78v4.585c0 4.89.6 9.78.6 9.78s.585 4.163 2.383 5.996c2.284 2.408 5.282 2.332 6.617 2.584 4.8.464 20.4.608 20.4.608s12.608-.02 21.004-.63c1.172-.142 3.73-.154 6.011-2.561 1.798-1.834 2.385-5.997 2.385-5.997s.6-4.89.6-9.78v-4.585c0-4.889-.6-9.78-.6-9.78zm-35.595 19.92l-.002-16.977 16.211 8.518-16.209 8.46z"/>
</svg>
