<svg xmlns="http://www.w3.org/2000/svg" width="27" height="31" viewBox="0 0 27 31">
    <path fill="#1A1A1A" fill-rule="nonzero" d="M13.646.877c-.33.684-.556.846-.556 1.428 0 .203.043.402.123.584-.229-.113-.428-.199-.617-.207-.179-.007-.35.055-.53.229-.487.487-.115.98.499.968-.219-.284-.033-.457.197-.442.225.015.424.5.461.91a.236.236 0 0 0-.184.231v.018c0 .118.086.215.2.233.034.074.184.434-.109.595-.245.136-.242-.105-.115-.294-.358-.008-.575.32-.29.645.105.116.204.157.309.153.018 0 .037-.004.056-.008l-.047.142c-.026.08.064.151.149.155v4.759l-4.698.439V8.412c.085-.003.175-.074.15-.154l-.048-.142a.418.418 0 0 0 .056.007c.105.005.204-.036.31-.152.284-.325.067-.653-.291-.645.127.189.13.43-.115.294-.293-.161-.143-.52-.108-.595a.236.236 0 0 0 .2-.233v-.018a.236.236 0 0 0-.185-.23c.036-.41.235-.896.46-.911.231-.015.416.158.198.442.614.012.986-.481.499-.968-.37-.357-.702-.242-1.147-.022.08-.182.123-.38.123-.585 0-.582-.227-.743-.556-1.427-.329.684-.556.845-.556 1.427 0 .204.044.403.124.585-.23-.114-.428-.199-.617-.207-.18-.007-.35.055-.53.229-.487.487-.116.98.498.968-.218-.284-.033-.457.198-.442.225.015.424.5.46.91a.236.236 0 0 0-.184.23v.019c0 .118.087.215.2.233.034.074.185.434-.108.595-.245.136-.243-.105-.115-.294-.358-.008-.575.32-.29.645.104.116.204.157.308.152.019 0 .038-.004.057-.007l-.047.142c-.027.08.064.15.148.154V11.5l-4.697.439v-1.23c.084-.004.175-.075.149-.155l-.047-.142a.371.371 0 0 0 .056.007c.105.005.204-.036.31-.152.283-.324.067-.653-.291-.645.127.189.13.43-.116.294-.292-.161-.142-.52-.108-.595a.236.236 0 0 0 .2-.233V9.07a.236.236 0 0 0-.185-.23c.037-.41.236-.896.462-.91.23-.016.415.157.197.44.614.013.985-.48.498-.967-.37-.357-.7-.242-1.146-.022.08-.182.123-.38.123-.584 0-.582-.227-.744-.556-1.428-.33.684-.556.846-.556 1.428 0 .203.044.402.123.584-.229-.114-.427-.199-.616-.207-.18-.007-.35.055-.53.229-.487.487-.116.98.498.968-.218-.284-.033-.457.197-.442.226.015.425.5.462.91a.236.236 0 0 0-.185.231v.018c0 .118.086.215.2.233.034.074.184.434-.108.595-.246.136-.243-.105-.116-.294-.358-.008-.574.32-.29.645.105.116.204.157.309.152.019 0 .037-.004.056-.007l-.047.142c-.026.08.065.151.149.155V12.023l-1.164.109v.809l1.164-.109v5.948H.817v.809H1.98v5.929H.817v.809H1.98v4.55h.908v-4.55h4.697v4.55h.908v-4.55h4.697v4.55h.909v-4.55h4.697v4.55h.908v-4.55h4.697v4.55h.908v-4.55h1.165v-.81H25.31V19.59h1.165v-.81H25.31v-5.947l1.165.109v-.809l-1.165-.109V10.71c.085-.004.175-.075.15-.155l-.048-.142a.371.371 0 0 0 .056.007c.105.005.204-.036.31-.152.284-.325.067-.653-.291-.645.127.189.13.43-.115.294-.293-.161-.143-.52-.108-.595a.236.236 0 0 0 .2-.233V9.07a.236.236 0 0 0-.185-.23c.036-.41.235-.896.46-.91.231-.016.417.157.198.44.614.013.986-.48.499-.967-.37-.357-.702-.242-1.147-.022.08-.182.123-.38.123-.584 0-.583-.226-.744-.556-1.428-.329.684-.556.845-.556 1.428 0 .203.044.402.124.584-.23-.114-.428-.199-.617-.207-.18-.007-.35.055-.53.229-.487.487-.115.98.498.968-.218-.284-.033-.457.198-.442.225.015.424.5.46.91a.236.236 0 0 0-.184.231v.018c0 .118.087.215.2.233.035.074.185.434-.108.595-.245.136-.242-.105-.115-.294-.358-.008-.575.32-.29.645.104.116.204.157.308.152.019 0 .038-.004.057-.007l-.047.142c-.027.08.064.15.148.155V11.938l-4.697-.438V8.412c.084-.003.175-.074.149-.154l-.047-.142a.418.418 0 0 0 .056.007c.105.005.204-.036.31-.152.283-.325.067-.653-.291-.645.127.189.13.43-.116.294-.292-.161-.142-.521-.108-.595a.236.236 0 0 0 .2-.233v-.018a.236.236 0 0 0-.185-.231c.037-.41.236-.896.462-.91.23-.015.415.158.197.442.614.012.985-.481.498-.968-.37-.357-.7-.242-1.146-.022.08-.182.123-.38.123-.585 0-.582-.227-.743-.556-1.427-.33.684-.556.845-.556 1.427 0 .204.044.403.123.585-.229-.114-.427-.199-.616-.207-.18-.007-.35.055-.53.229-.487.487-.116.98.498.968-.218-.284-.033-.457.197-.442.226.015.425.5.462.91a.236.236 0 0 0-.185.23v.019c0 .118.086.215.2.233.034.074.184.434-.108.595-.246.135-.243-.105-.116-.294-.358-.008-.574.32-.29.645.105.116.204.157.309.152.019 0 .037-.004.056-.007l-.047.142c-.026.08.065.15.149.154v3.003l-4.697-.439V6.217c.084-.004.175-.075.148-.155l-.047-.142a.371.371 0 0 0 .057.007c.104.005.204-.036.309-.152.284-.325.067-.653-.29-.645.127.189.13.43-.116.294-.293-.161-.142-.52-.108-.595a.236.236 0 0 0 .2-.233v-.018a.236.236 0 0 0-.185-.23c.037-.41.236-.896.461-.911.23-.015.416.158.198.442.613.012.985-.481.498-.968-.37-.357-.701-.242-1.147-.022.08-.182.123-.38.124-.584 0-.583-.227-.744-.556-1.428zm-.455 10.908V18.78H8.494v-6.556l4.697-.439zm.909 0l4.697.44v6.555H14.1v-6.995zm-6.514.524v6.471H2.889v-6.033l4.697-.438zm12.12 0l4.696.439v6.032h-4.697v-6.471zm-16.817 7.28h4.697v5.929H2.889v-5.93zm5.605 0h4.697v5.929H8.494v-5.93zm5.606 0h4.697v5.929H14.1v-5.93zm5.605 0h4.697v5.929h-4.697v-5.93z"/>
</svg>
