<svg xmlns="http://www.w3.org/2000/svg" width="30" height="17" viewBox="0 0 30 17">
    <g fill="#1A1A1A" fill-rule="nonzero">
        <path d="M8.092 11.407c-.737 0-1.105-.341-1.374-.59l-.045-.042a.232.232 0 1 1 .315-.342l.046.042c.247.23.503.466 1.058.466a.233.233 0 1 1 0 .466zM2.188 11.359a.233.233 0 0 1-.022-.465c1.219-.114 2.706-.418 3.7-.754a.233.233 0 1 1 .15.44c-1.026.347-2.556.66-3.806.778h-.022zM14.907 11.407c-.737 0-1.105-.341-1.374-.59a.233.233 0 0 1 .316-.342c.248.23.503.467 1.058.467a.233.233 0 1 1 0 .465zM9.013 11.357a.233.233 0 0 1-.022-.464c1.228-.116 2.717-.419 3.705-.753a.232.232 0 1 1 .149.44c-1.019.345-2.55.657-3.81.776a.314.314 0 0 1-.022.001zM21.722 11.407c-.673 0-1.03-.275-1.312-.533a.232.232 0 1 1 .313-.343c.238.216.492.41.999.41a.233.233 0 1 1 0 .466zM15.837 11.356a.233.233 0 0 1-.022-.464c1.222-.116 2.749-.426 3.714-.752a.233.233 0 0 1 .149.44c-1.01.342-2.545.654-3.819.775l-.022.001zM22.661 11.356a.232.232 0 0 1-.022-.464c1.23-.118 2.713-.421 3.693-.752.574-.193.878.087 1.146.335.063.06.13.121.204.18a.233.233 0 0 1-.29.364 4.029 4.029 0 0 1-.23-.202c-.263-.244-.381-.336-.681-.237-1.01.342-2.536.653-3.797.775h-.023zM8.51 8.15c-.697 0-1.04-.318-1.291-.55a.233.233 0 0 1 .316-.342c.226.21.46.427.975.427a.233.233 0 1 1 0 .465zM3.058 8.096a.232.232 0 0 1-.023-.464c1.137-.115 2.504-.396 3.402-.7a.233.233 0 0 1 .149.44c-.927.315-2.336.605-3.504.723a.273.273 0 0 1-.024 0zM14.907 8.15c-.635 0-.972-.258-1.238-.501a.232.232 0 1 1 .314-.344c.22.2.455.38.924.38a.233.233 0 1 1 0 .465zM9.447 8.097a.233.233 0 0 1-.023-.464c1.138-.114 2.508-.396 3.408-.7.12-.04.253.024.294.145a.233.233 0 0 1-.146.295c-.929.315-2.34.605-3.51.723a.266.266 0 0 1-.023 0zM21.304 8.15c-.593 0-.934-.23-1.19-.457a.233.233 0 0 1 .31-.348 1.2 1.2 0 0 0 .88.34.232.232 0 1 1 0 .465zM15.837 8.098a.233.233 0 0 1-.023-.464c1.143-.115 2.515-.397 3.416-.702a.232.232 0 1 1 .149.44c-.93.316-2.345.607-3.519.725a.243.243 0 0 1-.023 0zM22.227 8.098a.232.232 0 0 1-.023-.464c1.143-.114 2.519-.395 3.423-.702.548-.185.835.083 1.09.319l.098.09a.233.233 0 0 1-.309.348l-.106-.097c-.234-.216-.34-.314-.624-.219-.934.317-2.35.608-3.526.724a.288.288 0 0 1-.023.001zM8.9 5.36c-.603 0-.926-.25-1.18-.484a.232.232 0 1 1 .314-.342c.215.197.429.36.867.36a.233.233 0 1 1 0 .465zM3.802 5.306a.233.233 0 0 1-.024-.464c1.042-.107 2.307-.37 3.147-.652a.232.232 0 1 1 .149.44c-.884.298-2.159.563-3.248.675a.337.337 0 0 1-.024.001zM14.91 5.36c-.562 0-.885-.22-1.127-.435a.232.232 0 1 1 .309-.348c.173.153.393.317.819.317a.232.232 0 1 1 0 .465zM9.82 5.305a.233.233 0 0 1-.024-.464c1.052-.109 2.32-.37 3.154-.651a.233.233 0 0 1 .148.44c-.863.291-2.171.562-3.254.674a.31.31 0 0 1-.024.001zM20.92 5.36c-.534 0-.843-.199-1.053-.371a.233.233 0 1 1 .295-.36c.168.138.375.265.758.265a.233.233 0 1 1 0 .465zM15.837 5.305a.233.233 0 0 1-.024-.464c1.066-.11 2.337-.373 3.164-.651a.233.233 0 0 1 .15.44c-.858.29-2.17.56-3.266.674a.312.312 0 0 1-.024 0zM21.854 5.303a.233.233 0 0 1-.024-.464c1.054-.11 2.32-.37 3.148-.65.52-.178.807.087 1.038.3l.057.053a.232.232 0 1 1-.313.345l-.06-.056c-.233-.215-.326-.284-.573-.2-.859.288-2.164.558-3.249.671a.285.285 0 0 1-.024.001zM9.208 3.033a1.51 1.51 0 0 1-1.083-.42.232.232 0 1 1 .31-.347c.171.153.372.302.773.302a.232.232 0 1 1 0 .465zM4.421 2.977a.233.233 0 0 1-.024-.464c.99-.105 2.142-.346 2.935-.612a.233.233 0 0 1 .148.44c-.822.277-2.013.526-3.034.635a.237.237 0 0 1-.025.001zM14.907 3.033c-.516 0-.816-.195-1.019-.365a.233.233 0 0 1 .298-.357c.16.134.358.257.72.257a.232.232 0 1 1 0 .465zM10.12 2.977a.233.233 0 0 1-.024-.464c.989-.105 2.174-.351 2.95-.612a.233.233 0 0 1 .149.44c-.805.271-2.03.526-3.05.635a.262.262 0 0 1-.025.001zM20.606 3.033c-.368 0-.666-.095-.94-.3a.233.233 0 0 1 .28-.373c.128.097.32.208.66.208a.232.232 0 1 1 0 .465zM15.837 2.975a.232.232 0 0 1-.024-.463c.998-.108 2.184-.353 2.951-.611a.233.233 0 1 1 .148.44c-.795.269-2.021.523-3.05.633a.229.229 0 0 1-.025.001zM21.543 2.974a.232.232 0 0 1-.024-.463c.986-.107 2.164-.352 2.93-.61.5-.17.775.082.996.286a.233.233 0 1 1-.315.343c-.222-.206-.304-.267-.53-.189-.81.272-1.999.52-3.031.632a.258.258 0 0 1-.026.001zM7.58 15.129c-.786 0-1.178-.364-1.465-.63-.27-.249-.404-.373-.75-.257-1.447.489-3.74.887-5.113.887a.232.232 0 1 1 0-.466c1.308 0 3.581-.394 4.963-.861.609-.208.931.092 1.216.356.268.248.546.505 1.149.505a.232.232 0 1 1 0 .466z"/>
        <path d="M14.907 15.129c-.785 0-1.178-.364-1.465-.63-.27-.249-.404-.373-.75-.257-1.446.489-3.74.887-5.112.887a.233.233 0 1 1 0-.466c1.308 0 3.58-.394 4.963-.861.608-.208.93.092 1.215.356.268.248.546.505 1.149.505a.232.232 0 1 1 0 .466z"/>
        <path d="M22.234 15.129c-.785 0-1.178-.364-1.465-.63-.269-.249-.405-.373-.75-.257-1.446.489-3.74.887-5.112.887a.233.233 0 1 1 0-.466c1.308 0 3.58-.394 4.963-.861.608-.208.93.092 1.215.356.269.248.546.505 1.149.505a.232.232 0 1 1 0 .466z"/>
        <path d="M29.561 15.129c-.785 0-1.178-.364-1.465-.63-.269-.249-.404-.373-.75-.257-1.446.489-3.74.887-5.112.887a.232.232 0 1 1 0-.466c1.308 0 3.58-.394 4.963-.861.609-.208.93.092 1.215.356.269.248.546.505 1.15.505a.232.232 0 1 1 0 .466zM7.58 16.059c-.786 0-1.178-.364-1.465-.63-.27-.248-.404-.372-.75-.256-1.447.488-3.74.886-5.113.886a.232.232 0 1 1 0-.465c1.308 0 3.581-.395 4.963-.862.609-.207.931.093 1.216.356.268.249.546.506 1.149.506a.232.232 0 1 1 0 .465z"/>
        <path d="M14.907 16.059c-.785 0-1.178-.364-1.465-.63-.27-.248-.404-.372-.75-.256-1.446.488-3.74.886-5.112.886a.232.232 0 1 1 0-.465c1.308 0 3.58-.395 4.963-.862.608-.207.93.093 1.215.356.268.249.546.506 1.149.506a.232.232 0 1 1 0 .465z"/>
        <path d="M22.234 16.059c-.785 0-1.178-.364-1.465-.63-.269-.248-.405-.372-.75-.256-1.446.488-3.74.886-5.112.886a.232.232 0 1 1 0-.465c1.308 0 3.58-.395 4.963-.862.608-.207.93.093 1.215.356.269.249.546.506 1.149.506a.232.232 0 1 1 0 .465z"/>
        <path d="M29.561 16.059c-.785 0-1.178-.364-1.465-.63-.269-.248-.404-.372-.75-.256-1.446.488-3.74.886-5.112.886a.232.232 0 1 1 0-.465c1.308 0 3.58-.395 4.963-.862.609-.207.93.093 1.215.356.269.249.546.506 1.15.506a.232.232 0 1 1 0 .465zM9.44 1.172c-.608 0-.911-.28-1.132-.485-.21-.194-.287-.252-.501-.179-1.09.366-2.81.664-3.833.664a.233.233 0 1 1 0-.465c.965 0 2.652-.293 3.684-.64.487-.165.753.08.966.278.2.186.39.362.817.362a.233.233 0 1 1 0 .465z"/>
        <path d="M14.907 1.172c-.609 0-.912-.28-1.133-.485-.21-.194-.286-.252-.5-.179-1.091.366-2.81.664-3.833.664a.233.233 0 1 1 0-.465c.964 0 2.651-.293 3.684-.64.486-.165.752.08.965.278.201.186.39.362.817.362a.233.233 0 1 1 0 .465z"/>
        <path d="M20.373 1.172c-.609 0-.912-.28-1.134-.486-.209-.193-.286-.25-.499-.178-1.09.366-2.81.664-3.833.664a.233.233 0 1 1 0-.465c.965 0 2.652-.293 3.684-.64.486-.166.75.08.964.278.201.186.391.362.818.362a.232.232 0 1 1 0 .465z"/>
        <path d="M25.84 1.172c-.61 0-.913-.28-1.135-.486-.209-.193-.285-.25-.498-.178-1.092.366-2.81.664-3.834.664a.233.233 0 1 1 0-.465c.965 0 2.652-.293 3.684-.64.487-.166.751.08.965.278.2.186.39.362.817.362a.232.232 0 1 1 0 .465zM.253 15.129a.233.233 0 0 1-.225-.293L3.75.88A.232.232 0 1 1 4.2 1L.476 14.956a.232.232 0 0 1-.224.173z"/>
        <path d="M29.561 15.129a.232.232 0 0 1-.224-.173L25.615 1a.232.232 0 1 1 .449-.12l3.722 13.956a.232.232 0 0 1-.225.293zM27.271 14.254a.233.233 0 0 1-.226-.18L23.905.339a.233.233 0 1 1 .453-.103l3.14 13.734a.232.232 0 0 1-.227.284zM19.944 14.254a.233.233 0 0 1-.231-.21L18.433.308a.233.233 0 0 1 .464-.043L20.176 14a.233.233 0 0 1-.21.253l-.022.001zM12.617 14.254h-.01a.233.233 0 0 1-.222-.242L12.966.278a.236.236 0 0 1 .242-.223.233.233 0 0 1 .223.242l-.582 13.735a.232.232 0 0 1-.232.222zM5.29 14.254a.232.232 0 0 1-.23-.273L7.504.247a.232.232 0 1 1 .458.081L5.52 14.063a.232.232 0 0 1-.229.191zM7.58 15.129l-.031-.002a.233.233 0 0 1-.2-.262L9.21.909a.233.233 0 1 1 .461.061l-1.86 13.957a.233.233 0 0 1-.231.202zM14.924 15.129c-.138 0-.25-.105-.25-.233V.94c0-.129.112-.233.25-.233s.25.104.25.233v13.956c0 .128-.112.233-.25.233zM22.234 15.129a.233.233 0 0 1-.23-.202L20.141.97a.233.233 0 0 1 .462-.061l1.86 13.956a.233.233 0 0 1-.23.264z"/>
        <path d="M29.579 16.059c-.139 0-.25-.104-.25-.233v-.93c0-.129.111-.233.25-.233.138 0 .25.104.25.233v.93c0 .129-.112.233-.25.233zM.27 16.059c-.138 0-.25-.104-.25-.233v-.93c0-.129.112-.233.25-.233s.25.104.25.233v.93c0 .129-.112.233-.25.233z"/>
    </g>
</svg>
