<svg xmlns="http://www.w3.org/2000/svg" width="30" height="27" viewBox="0 0 30 27">
    <g fill="#1A1A1A" fill-rule="nonzero">
        <path d="M13.152 3.303c5.453 0 9.89 4.436 9.89 9.89 0 5.452-4.437 9.89-9.89 9.89s-9.89-4.438-9.89-9.89c0-5.454 4.437-9.89 9.89-9.89zm0 19.074c5.064 0 9.184-4.12 9.184-9.185 0-5.064-4.12-9.184-9.184-9.184-5.064 0-9.184 4.12-9.184 9.184 0 5.065 4.12 9.185 9.184 9.185z"/>
        <path d="M13.152 4.384c4.857 0 8.809 3.951 8.809 8.808 0 4.857-3.952 8.809-8.809 8.809-4.857 0-8.808-3.952-8.808-8.809 0-4.857 3.951-8.808 8.808-8.808zm0 16.003a7.195 7.195 0 1 0 0-14.39 7.195 7.195 0 0 0 0 14.39z"/>
        <path d="M13.152 2.228c6.046 0 10.964 4.918 10.964 10.964s-4.918 10.964-10.964 10.964S2.188 19.238 2.188 13.192 7.106 2.228 13.152 2.228zm0 21.23c5.66 0 10.266-4.605 10.266-10.265 0-5.661-4.605-10.266-10.266-10.266-5.66 0-10.266 4.605-10.266 10.266 0 5.66 4.606 10.266 10.266 10.266z"/>
        <path d="M13.152 1.103c6.667 0 12.09 5.423 12.09 12.09 0 6.666-5.424 12.09-12.09 12.09-6.666 0-12.09-5.424-12.09-12.09 0-6.667 5.424-12.09 12.09-12.09zm0 23.43c6.253 0 11.34-5.088 11.34-11.34 0-6.254-5.087-11.34-11.34-11.34s-11.34 5.086-11.34 11.34c0 6.252 5.087 11.34 11.34 11.34z"/>
        <path d="M13.152.163c7.196 0 13.03 5.833 13.03 13.03 0 4.897-2.703 9.162-6.697 11.388.44-.142.886-.305 1.334-.488 5.257-2.163 8.094-6.167 8.432-11.9a.314.314 0 0 1 .626.037c-.195 3.296-1.213 6.089-3.027 8.3-1.45 1.767-3.405 3.163-5.812 4.15-3.638 1.492-7.14 1.586-7.967 1.586-.1 0-.16-.002-.178-.002a.31.31 0 0 1-.158-.05C5.733 25.996.122 20.25.122 13.193c0-7.196 5.834-13.03 13.03-13.03zm0 25.496c6.874 0 12.466-5.593 12.466-12.466 0-6.874-5.592-12.466-12.466-12.466C6.28.727.686 6.319.686 13.193c0 6.873 5.593 12.466 12.466 12.466z"/>
    </g>
</svg>
