<svg xmlns="http://www.w3.org/2000/svg" width="30" height="24" viewBox="0 0 30 24">
    <g fill="#1A1A1A" fill-rule="nonzero">
        <path d="M1.171 10.978l13.763 11.138 7.873-4.929-1.184-1.888 5.729-.192-2.689 5.089-1.184-1.889-6.369 3.969h11.586c.352 0 .64.288.64.64 0 .352-.288.64-.64.64H2.131a.642.642 0 0 1-.64-.64c0-.352.288-.64.64-.64h10.946L.371 12.002a.624.624 0 0 1-.096-.896c.224-.288.64-.352.896-.128z"/>
        <path d="M15.01 17.507c-2.688 0-4.864-2.112-4.864-4.737 0-2.336 3.84-11.234 4.257-12.226a.632.632 0 0 1 .576-.384c.256 0 .512.16.64.384.448.992 4.257 9.89 4.257 12.226 0 2.625-2.177 4.737-4.865 4.737zm0-15.075c-1.344 3.233-3.552 8.834-3.552 10.338 0 1.92 1.6 3.457 3.585 3.457 1.984 0 3.584-1.536 3.584-3.457-.032-1.504-2.24-7.105-3.616-10.338z"/>
    </g>
</svg>
